<svg width="845" height="643" viewBox="0 0 845 643" fill="none" xmlns="http://www.w3.org/2000/svg">
<rect width="77.616" height="89.712" transform="matrix(-1 0 0 1 317.952 133)" fill="#A7C3FF"/>
<rect width="77.616" height="89.712" transform="matrix(-1 0 0 1 324 133)" fill="#C8DAFF"/>
<path d="M314.928 143.584H255.456V212.632H314.928V143.584Z" fill="#EAEFFF"/>
<rect width="6.048" height="69.048" transform="matrix(-1 0 0 1 314.928 143.584)" fill="#A7C3FF"/>
<path fill-rule="evenodd" clip-rule="evenodd" d="M266.404 194.014C266.017 194.014 265.774 193.596 265.966 193.26L285.753 158.586C285.948 158.243 286.444 158.248 286.633 158.593L305.611 193.268C305.795 193.604 305.552 194.014 305.169 194.014H266.404Z" stroke="#A7C3FF" stroke-width="1.512"/>
<path fill-rule="evenodd" clip-rule="evenodd" d="M266.406 177.962C266.019 177.962 265.776 177.544 265.969 177.208L276.666 158.58C276.862 158.239 277.355 158.243 277.545 158.587L287.804 177.215C287.989 177.551 287.746 177.962 287.363 177.962H266.406Z" stroke="#A7C3FF" stroke-width="1.512"/>
<rect width="77.616" height="89.712" transform="matrix(-1 0 0 1 429.952 133)" fill="#A7C3FF"/>
<rect width="77.616" height="89.712" transform="matrix(-1 0 0 1 436 133)" fill="#C8DAFF"/>
<path d="M426.928 143.584H367.456V212.632H426.928V143.584Z" fill="#EAEFFF"/>
<rect width="29.736" height="29.736" rx="0.504" transform="matrix(-1 0 0 1 412.816 166.264)" stroke="#A7C3FF" stroke-width="1.512"/>
<rect width="22.68" height="22.68" rx="0.504" transform="matrix(-1 0 0 1 396.688 154.672)" stroke="#A7C3FF" stroke-width="1.512"/>
<rect width="6.048" height="69.048" transform="matrix(-1 0 0 1 426.928 143.584)" fill="#A7C3FF"/>
<rect width="77.616" height="89.712" transform="matrix(-1 0 0 1 540.952 133)" fill="#A7C3FF"/>
<rect width="77.616" height="89.712" transform="matrix(-1 0 0 1 547 133)" fill="#C8DAFF"/>
<path d="M537.928 143.584H478.456V212.632H537.928V143.584Z" fill="#EAEFFF"/>
<path fill-rule="evenodd" clip-rule="evenodd" d="M497.356 175.336C491.371 175.336 486.52 170.485 486.52 164.5C486.52 158.516 491.371 153.664 497.356 153.664C503.34 153.664 508.192 158.516 508.192 164.5C508.192 170.485 503.34 175.336 497.356 175.336Z" stroke="#A7C3FF" stroke-width="1.512"/>
<path fill-rule="evenodd" clip-rule="evenodd" d="M507.436 202.048C495.884 202.048 486.52 192.684 486.52 181.132C486.52 169.58 495.884 160.216 507.436 160.216C518.988 160.216 528.352 169.58 528.352 181.132C528.352 192.684 518.988 202.048 507.436 202.048Z" stroke="#A7C3FF" stroke-width="1.512"/>
<rect width="6.048" height="69.048" transform="matrix(-1 0 0 1 537.928 143.584)" fill="#A7C3FF"/>
<path fill-rule="evenodd" clip-rule="evenodd" d="M189 310C189 308.895 189.895 308 191 308H245C246.105 308 247 308.895 247 310V316C247 317.105 246.105 318 245 318H191C189.895 318 189 317.105 189 316V310Z" fill="#FF326F"/>
<path fill-rule="evenodd" clip-rule="evenodd" d="M189 310C189 308.895 189.895 308 191 308L220 308C221.105 308 222 308.895 222 310V316C222 317.105 221.105 318 220 318H191C189.895 318 189 317.105 189 316V310Z" fill="#FF5D8E"/>
<path d="M191 310.8C191 309.806 191.806 309 192.8 309L246 309C246.552 309 247 309.448 247 310V316C247 316.552 246.552 317 246 317H192.8C191.806 317 191 316.194 191 315.2V310.8Z" fill="#EAEFFF"/>
<path fill-rule="evenodd" clip-rule="evenodd" d="M222 310.8C222 309.806 222.806 309 223.8 309H246C246.552 309 247 309.448 247 310V316C247 316.552 246.552 317 246 317H223.8C222.806 317 222 316.194 222 315.2V310.8Z" fill="#C1D7FF"/>
<path d="M192 300C192 298.895 192.895 298 194 298H248C249.105 298 250 298.895 250 300V306C250 307.105 249.105 308 248 308H194C192.895 308 192 307.105 192 306V300Z" fill="#F5AC00"/>
<path d="M192 300C192 298.895 192.895 298 194 298L223 298C224.105 298 225 298.895 225 300V306C225 307.105 224.105 308 223 308H194C192.895 308 192 307.105 192 306V300Z" fill="#FFBF29"/>
<path d="M194 300.8C194 299.806 194.806 299 195.8 299L249 299C249.552 299 250 299.448 250 300V306C250 306.552 249.552 307 249 307H195.8C194.806 307 194 306.194 194 305.2V300.8Z" fill="#EAEFFF"/>
<path fill-rule="evenodd" clip-rule="evenodd" d="M225 300.8C225 299.806 225.806 299 226.8 299H249C249.552 299 250 299.448 250 300V306C250 306.552 249.552 307 249 307H226.8C225.806 307 225 306.194 225 305.2V300.8Z" fill="#C1D7FF"/>
<path fill-rule="evenodd" clip-rule="evenodd" d="M670.68 580.08H679.08V606.96H670.68V580.08Z" fill="#A7C3FF"/>
<path fill-rule="evenodd" clip-rule="evenodd" d="M678.24 580.08H684.96V606.96H678.24V580.08Z" fill="#C8DAFF"/>
<path fill-rule="evenodd" clip-rule="evenodd" d="M632.88 580.08H641.28V606.96H632.88V580.08Z" fill="#A7C3FF"/>
<path fill-rule="evenodd" clip-rule="evenodd" d="M640.44 580.08H647.16V606.96H640.44V580.08Z" fill="#C8DAFF"/>
<path fill-rule="evenodd" clip-rule="evenodd" d="M543 321.36C543 319.504 544.504 318 546.36 318H688.32C690.176 318 691.68 319.504 691.68 321.36V590.16C691.68 592.016 690.176 593.52 688.32 593.52H546.36C544.504 593.52 543 592.016 543 590.16V321.36Z" fill="#9AB9FA"/>
<path fill-rule="evenodd" clip-rule="evenodd" d="M543 321.36C543 319.504 544.504 318 546.36 318H595.92V593.52H546.36C544.504 593.52 543 592.016 543 590.16V321.36Z" fill="#A7C3FF"/>
<path fill-rule="evenodd" clip-rule="evenodd" d="M646.32 318H688.32C690.175 318 691.68 319.504 691.68 321.36V590.16C691.68 592.016 690.176 593.52 688.32 593.52H646.32V318Z" fill="#A7C3FF"/>
<path fill-rule="evenodd" clip-rule="evenodd" d="M688.32 318C690.176 318 691.68 319.504 691.68 321.36V590.16C691.68 592.016 690.176 593.52 688.32 593.52H595.08C593.225 593.52 591.72 592.016 591.72 590.16V321.36C591.72 319.504 593.225 318 595.08 318H688.32ZM684.96 504.48H599.28V585.96H684.96V504.48ZM684.96 414.6H599.28V496.08H684.96V414.6ZM684.96 325.56H599.28V407.04H684.96V325.56Z" fill="#C8DAFF"/>
<path fill-rule="evenodd" clip-rule="evenodd" d="M447 321.36C447 319.504 448.504 318 450.36 318H592.32C594.176 318 595.68 319.504 595.68 321.36V590.16C595.68 592.016 594.176 593.52 592.32 593.52H450.36C448.504 593.52 447 592.016 447 590.16V321.36Z" fill="#9AB9FA"/>
<path fill-rule="evenodd" clip-rule="evenodd" d="M447 321.36C447 319.504 448.504 318 450.36 318H499.92V593.52H450.36C448.504 593.52 447 592.016 447 590.16V321.36Z" fill="#A7C3FF"/>
<path fill-rule="evenodd" clip-rule="evenodd" d="M550.32 318H592.32C594.175 318 595.68 319.504 595.68 321.36V590.16C595.68 592.016 594.176 593.52 592.32 593.52H550.32V318Z" fill="#A7C3FF"/>
<path fill-rule="evenodd" clip-rule="evenodd" d="M592.32 318C594.176 318 595.68 319.504 595.68 321.36V590.16C595.68 592.016 594.176 593.52 592.32 593.52H499.08C497.225 593.52 495.72 592.016 495.72 590.16V321.36C495.72 319.504 497.225 318 499.08 318H592.32ZM588.96 504.48H503.28V585.96H588.96V504.48ZM588.96 414.6H503.28V496.08H588.96V414.6ZM588.96 325.56H503.28V407.04H588.96V325.56Z" fill="#C8DAFF"/>
<rect x="399.2" y="580.08" width="11.76" height="26.88" fill="#A7C3FF"/>
<path fill-rule="evenodd" clip-rule="evenodd" d="M406.76 580.08H413.48V606.96H406.76V580.08Z" fill="#C8DAFF"/>
<rect x="355.52" y="580.08" width="11.76" height="26.88" fill="#A7C3FF"/>
<path fill-rule="evenodd" clip-rule="evenodd" d="M363.08 580.08H369.8V606.96H363.08V580.08Z" fill="#C8DAFF"/>
<path fill-rule="evenodd" clip-rule="evenodd" d="M353 321.36C353 319.504 354.504 318 356.36 318H498.32C500.176 318 501.68 319.504 501.68 321.36V590.16C501.68 592.016 500.176 593.52 498.32 593.52H356.36C354.504 593.52 353 592.016 353 590.16V321.36Z" fill="#9AB9FA"/>
<path fill-rule="evenodd" clip-rule="evenodd" d="M353 321.36C353 319.504 354.504 318 356.36 318H405.92V593.52H356.36C354.504 593.52 353 592.016 353 590.16V321.36Z" fill="#A7C3FF"/>
<path fill-rule="evenodd" clip-rule="evenodd" d="M456.32 318H498.32C500.175 318 501.68 319.504 501.68 321.36V590.16C501.68 592.016 500.176 593.52 498.32 593.52H456.32V318Z" fill="#A7C3FF"/>
<path fill-rule="evenodd" clip-rule="evenodd" d="M498.32 318C500.176 318 501.68 319.504 501.68 321.36V590.16C501.68 592.016 500.176 593.52 498.32 593.52H405.08C403.225 593.52 401.72 592.016 401.72 590.16V321.36C401.72 319.504 403.225 318 405.08 318H498.32ZM494.96 504.48H409.28V585.96H494.96V504.48ZM494.96 414.6H409.28V496.08H494.96V414.6ZM494.96 325.56H409.28V407.04H494.96V325.56Z" fill="#C8DAFF"/>
<path fill-rule="evenodd" clip-rule="evenodd" d="M587 448C587 446.895 586.105 446 585 446H551C549.895 446 549 446.895 549 448V494C549 495.105 549.895 496 551 496H585C586.105 496 587 495.105 587 494V448Z" fill="#FF5D8E"/>
<path fill-rule="evenodd" clip-rule="evenodd" d="M587 448C587 446.895 586.105 446 585 446H578V496H585C586.105 496 587 495.105 587 494V448Z" fill="#FF326F"/>
<path d="M586 446H579V496H586V446Z" fill="#EAEFFF"/>
<path d="M576 448C576 446.895 575.105 446 574 446H540C538.895 446 538 446.895 538 448V494C538 495.105 538.895 496 540 496H574C575.105 496 576 495.105 576 494V448Z" fill="#FFBF29"/>
<path d="M576 448C576 446.895 575.105 446 574 446H567V496H574C575.105 496 576 495.105 576 494V448Z" fill="#F5AC00"/>
<path d="M565 448C565 446.895 564.105 446 563 446H529C527.895 446 527 446.895 527 448V494C527 495.105 527.895 496 529 496H563C564.105 496 565 495.105 565 494V448Z" fill="#1075F0"/>
<path d="M565 448C565 446.895 564.105 446 563 446H556V496H563C564.105 496 565 495.105 565 494V448Z" fill="#467FFF"/>
<path d="M564 446H557V496H564V446Z" fill="#EAEFFF"/>
<path d="M554 448C554 446.895 553.105 446 552 446H518C516.895 446 516 446.895 516 448V494C516 495.105 516.895 496 518 496H552C553.105 496 554 495.105 554 494V448Z" fill="#B34EE6"/>
<path d="M554 448C554 446.895 553.105 446 552 446H545V496H552C553.105 496 554 495.105 554 494V448Z" fill="#CF6FFF"/>
<path d="M553 446H546V496H553V446Z" fill="#EAEFFF"/>
<path d="M543 448C543 446.895 542.105 446 541 446H507C505.895 446 505 446.895 505 448V494C505 495.105 505.895 496 507 496H541C542.105 496 543 495.105 543 494V448Z" fill="#1075F0"/>
<path d="M543 448C543 446.895 542.105 446 541 446H534V496H541C542.105 496 543 495.105 543 494V448Z" fill="#467FFF"/>
<path d="M684 359C684 357.895 683.105 357 682 357H648C646.895 357 646 357.895 646 359V405C646 406.105 646.895 407 648 407H682C683.105 407 684 406.105 684 405V359Z" fill="#B34EE6"/>
<path d="M684 359C684 357.895 683.105 357 682 357H675V407H682C683.105 407 684 406.105 684 405V359Z" fill="#CF6FFF"/>
<path d="M683 357H676V407H683V357Z" fill="#EAEFFF"/>
<path fill-rule="evenodd" clip-rule="evenodd" d="M672 359C672 357.895 671.105 357 670 357H636C634.895 357 634 357.895 634 359V405C634 406.105 634.895 407 636 407H670C671.105 407 672 406.105 672 405V359Z" fill="#FF5D8E"/>
<path fill-rule="evenodd" clip-rule="evenodd" d="M672 359C672 357.895 671.105 357 670 357H663V407H670C671.105 407 672 406.105 672 405V359Z" fill="#FF326F"/>
<path d="M650 359C650 357.895 649.105 357 648 357H614C612.895 357 612 357.895 612 359V405C612 406.105 612.895 407 614 407H648C649.105 407 650 406.105 650 405V359Z" fill="#1075F0"/>
<path d="M650 359C650 357.895 649.105 357 648 357H641V407H648C649.105 407 650 406.105 650 405V359Z" fill="#467FFF"/>
<path d="M649 357H642V407H649V357Z" fill="#EAEFFF"/>
<path d="M587 359C587 357.895 586.105 357 585 357H551C549.895 357 549 357.895 549 359V405C549 406.105 549.895 407 551 407H585C586.105 407 587 406.105 587 405V359Z" fill="#B34EE6"/>
<path d="M587 359C587 357.895 586.105 357 585 357H578V407H585C586.105 407 587 406.105 587 405V359Z" fill="#CF6FFF"/>
<path d="M586 357H579V407H586V357Z" fill="#EAEFFF"/>
<path d="M575 359C575 357.895 574.105 357 573 357H539C537.895 357 537 357.895 537 359V405C537 406.105 537.895 407 539 407H573C574.105 407 575 406.105 575 405V359Z" fill="#1075F0"/>
<path d="M575 359C575 357.895 574.105 357 573 357H566V407H573C574.105 407 575 406.105 575 405V359Z" fill="#467FFF"/>
<rect width="38" height="54" rx="2" transform="matrix(-1 0 0 1 559 353)" fill="#40B955"/>
<path d="M559 355C559 353.895 558.105 353 557 353H550V407H557C558.105 407 559 406.105 559 405V355Z" fill="#4ED266"/>
<rect width="38" height="54" rx="2" transform="matrix(-1 0 0 1 549 353)" fill="#B34EE6"/>
<path d="M549 355C549 353.895 548.105 353 547 353H540V407H547C548.105 407 549 406.105 549 405V355Z" fill="#CF6FFF"/>
<path d="M522 359C522 357.895 521.105 357 520 357H505C503.895 357 503 357.895 503 359V405C503 406.105 503.895 407 505 407H520C521.105 407 522 406.105 522 405V359Z" fill="#1075F0"/>
<path d="M522 359C522 357.895 521.105 357 520 357H513V407H520C521.105 407 522 406.105 522 405V359Z" fill="#467FFF"/>
<path d="M521 357H514V407H521V357Z" fill="#EAEFFF"/>
<path fill-rule="evenodd" clip-rule="evenodd" d="M583.463 536.271H552.124V586.244H583.463V536.271Z" fill="#FF5D8E"/>
<path fill-rule="evenodd" clip-rule="evenodd" d="M583.463 536.271H574.146V586.244H583.463V536.271Z" fill="#FF326F"/>
<path d="M568.217 538.812H545.348L528.408 580.315H551.277L568.217 538.812Z" fill="#FFBF29"/>
<path d="M568.217 538.812C568.217 538.812 571.014 539.874 572.696 541.48C574.377 543.085 574.521 545.234 574.521 545.234L557.394 586.244C557.394 586.244 557.041 583.829 555.417 582.495C553.793 581.161 551.277 580.315 551.277 580.315L568.217 538.812Z" fill="#F5AC00"/>
<path d="M551.277 580.314H528.925C528.925 580.314 531.803 582.258 532.97 583.279C534.138 584.299 535.705 586.243 535.705 586.243H557.385C557.385 586.243 557.052 583.838 555.417 582.495C553.782 581.152 551.277 580.314 551.277 580.314Z" fill="#EFF3FF"/>
<path d="M520 538C520 536.895 519.105 536 518 536H505C503.895 536 503 536.895 503 538V584C503 585.105 503.895 586 505 586H518C519.105 586 520 585.105 520 584V538Z" fill="#B34EE6"/>
<path d="M520 538C520 536.895 519.105 536 518 536H511V586H518C519.105 586 520 585.105 520 584V538Z" fill="#CF6FFF"/>
<path d="M519 536H512V586H519V536Z" fill="#EAEFFF"/>
<path fill-rule="evenodd" clip-rule="evenodd" d="M682 538C682 536.895 681.105 536 680 536H646C644.895 536 644 536.895 644 538V584C644 585.105 644.895 586 646 586H680C681.105 586 682 585.105 682 584V538Z" fill="#FF5D8E"/>
<path fill-rule="evenodd" clip-rule="evenodd" d="M682 538C682 536.895 681.105 536 680 536H673V586H680C681.105 586 682 585.105 682 584V538Z" fill="#FF326F"/>
<path fill-rule="evenodd" clip-rule="evenodd" d="M671 538C671 536.895 670.105 536 669 536H635C633.895 536 633 536.895 633 538V584C633 585.105 633.895 586 635 586H669C670.105 586 671 585.105 671 584V538Z" fill="#FF5D8E"/>
<path fill-rule="evenodd" clip-rule="evenodd" d="M671 538C671 536.895 670.105 536 669 536H662V586H669C670.105 586 671 585.105 671 584V538Z" fill="#FF326F"/>
<path d="M660 538C660 536.895 659.105 536 658 536H624C622.895 536 622 536.895 622 538V584C622 585.105 622.895 586 624 586H658C659.105 586 660 585.105 660 584V538Z" fill="#FFBF29"/>
<path d="M660 538C660 536.895 659.105 536 658 536H651V586H658C659.105 586 660 585.105 660 584V538Z" fill="#F5AC00"/>
<path d="M649 538C649 536.895 648.105 536 647 536H613C611.895 536 611 536.895 611 538V584C611 585.105 611.895 586 613 586H647C648.105 586 649 585.105 649 584V538Z" fill="#B34EE6"/>
<path d="M649 538C649 536.895 648.105 536 647 536H640V586H647C648.105 586 649 585.105 649 584V538Z" fill="#CF6FFF"/>
<path d="M618 538C618 536.895 617.105 536 616 536H601C599.895 536 599 536.895 599 538V584C599 585.105 599.895 586 601 586H616C617.105 586 618 585.105 618 584V538Z" fill="#1075F0"/>
<path d="M618 538C618 536.895 617.105 536 616 536H609V586H616C617.105 586 618 585.105 618 584V538Z" fill="#467FFF"/>
<path d="M617 536H610V586H617V536Z" fill="#EAEFFF"/>
<path d="M617 528C617 526.895 617.895 526 619 526H673C674.105 526 675 526.895 675 528V534C675 535.105 674.105 536 673 536H619C617.895 536 617 535.105 617 534V528Z" fill="#F5AC00"/>
<path d="M617 528C617 526.895 617.895 526 619 526L648 526C649.105 526 650 526.895 650 528V534C650 535.105 649.105 536 648 536H619C617.895 536 617 535.105 617 534V528Z" fill="#FFBF29"/>
<path d="M619 528.8C619 527.806 619.806 527 620.8 527L674 527C674.552 527 675 527.448 675 528V534C675 534.552 674.552 535 674 535H620.8C619.806 535 619 534.194 619 533.2V528.8Z" fill="#EAEFFF"/>
<path fill-rule="evenodd" clip-rule="evenodd" d="M650 528.8C650 527.806 650.806 527 651.8 527H674C674.552 527 675 527.448 675 528V534C675 534.552 674.552 535 674 535H651.8C650.806 535 650 534.194 650 533.2V528.8Z" fill="#C1D7FF"/>
<path fill-rule="evenodd" clip-rule="evenodd" d="M493 538C493 536.895 492.105 536 491 536H457C455.895 536 455 536.895 455 538V584C455 585.105 455.895 586 457 586H491C492.105 586 493 585.105 493 584V538Z" fill="#FF5D8E"/>
<path fill-rule="evenodd" clip-rule="evenodd" d="M493 538C493 536.895 492.105 536 491 536H484V586H491C492.105 586 493 585.105 493 584V538Z" fill="#FF326F"/>
<path d="M492 536H485V586H492V536Z" fill="#EAEFFF"/>
<path d="M483 538C483 536.895 482.105 536 481 536H447C445.895 536 445 536.895 445 538V584C445 585.105 445.895 586 447 586H481C482.105 586 483 585.105 483 584V538Z" fill="#B34EE6"/>
<path d="M483 538C483 536.895 482.105 536 481 536H474V586H481C482.105 586 483 585.105 483 584V538Z" fill="#CF6FFF"/>
<path d="M482 536H475V586H482V536Z" fill="#EAEFFF"/>
<path d="M464 538C464 536.895 463.105 536 462 536H428C426.895 536 426 536.895 426 538V584C426 585.105 426.895 586 428 586H462C463.105 586 464 585.105 464 584V538Z" fill="#1075F0"/>
<path d="M464 538C464 536.895 463.105 536 462 536H455V586H462C463.105 586 464 585.105 464 584V538Z" fill="#467FFF"/>
<path d="M449.696 539H426.827L409.887 580.503H432.756L449.696 539Z" fill="#FFBF29"/>
<path d="M449.696 539C449.696 539 452.493 540.063 454.175 541.668C455.857 543.274 456 545.422 456 545.422L438.873 586.432C438.873 586.432 438.521 584.017 436.897 582.683C435.273 581.349 432.756 580.503 432.756 580.503L449.696 539Z" fill="#F5AC00"/>
<path d="M432.756 580.503H410.404C410.404 580.503 413.283 582.447 414.45 583.467C415.617 584.488 417.185 586.432 417.185 586.432H438.864C438.864 586.432 438.532 584.026 436.897 582.683C435.261 581.34 432.756 580.503 432.756 580.503Z" fill="#EFF3FF"/>
<path d="M491 359.271C491 358.166 490.105 357.271 489 357.271H455C453.895 357.271 453 358.166 453 359.271V405C453 406.105 453.895 407 455 407H489C490.105 407 491 406.105 491 405V359.271Z" fill="#1075F0"/>
<path d="M491 359.271C491 358.166 490.105 357.271 489 357.271H482V407H489C490.105 407 491 406.105 491 405V359.271Z" fill="#467FFF"/>
<path fill-rule="evenodd" clip-rule="evenodd" d="M477.463 357.271H446.124V407.244H477.463V357.271Z" fill="#FF5D8E"/>
<path fill-rule="evenodd" clip-rule="evenodd" d="M477.463 357.271H468.146V407.244H477.463V357.271Z" fill="#FF326F"/>
<path d="M462.217 359.812H439.348L422.408 401.315H445.277L462.217 359.812Z" fill="#CF6FFF"/>
<path d="M462.217 359.812C462.217 359.812 465.014 360.874 466.696 362.48C468.377 364.085 468.521 366.234 468.521 366.234L451.394 407.244C451.394 407.244 451.041 404.829 449.417 403.495C447.793 402.161 445.277 401.315 445.277 401.315L462.217 359.812Z" fill="#B34EE6"/>
<path d="M445.277 401.314H422.925C422.925 401.314 425.803 403.258 426.97 404.279C428.138 405.299 429.705 407.243 429.705 407.243H451.385C451.385 407.243 451.052 404.838 449.417 403.495C447.782 402.152 445.277 401.314 445.277 401.314Z" fill="#EFF3FF"/>
<path d="M493 448C493 446.895 492.105 446 491 446H457C455.895 446 455 446.895 455 448V494C455 495.105 455.895 496 457 496H491C492.105 496 493 495.105 493 494V448Z" fill="#B34EE6"/>
<path d="M493 448C493 446.895 492.105 446 491 446H484V496H491C492.105 496 493 495.105 493 494V448Z" fill="#CF6FFF"/>
<path d="M492 446H485V496H492V446Z" fill="#EAEFFF"/>
<path d="M481 448C481 446.895 480.105 446 479 446H445C443.895 446 443 446.895 443 448V494C443 495.105 443.895 496 445 496H479C480.105 496 481 495.105 481 494V448Z" fill="#1075F0"/>
<path d="M481 448C481 446.895 480.105 446 479 446H472V496H479C480.105 496 481 495.105 481 494V448Z" fill="#467FFF"/>
<path d="M470 448C470 446.895 469.105 446 468 446H434C432.895 446 432 446.895 432 448V494C432 495.105 432.895 496 434 496H468C469.105 496 470 495.105 470 494V448Z" fill="#FFBF29"/>
<path d="M470 448C470 446.895 469.105 446 468 446H461V496H468C469.105 496 470 495.105 470 494V448Z" fill="#F5AC00"/>
<path d="M459 448C459 446.895 458.105 446 457 446H423C421.895 446 421 446.895 421 448V494C421 495.105 421.895 496 423 496H457C458.105 496 459 495.105 459 494V448Z" fill="#FFBF29"/>
<path d="M459 448C459 446.895 458.105 446 457 446H450V496H457C458.105 496 459 495.105 459 494V448Z" fill="#F5AC00"/>
<path fill-rule="evenodd" clip-rule="evenodd" d="M448 448C448 446.895 447.105 446 446 446H412C410.895 446 410 446.895 410 448V494C410 495.105 410.895 496 412 496H446C447.105 496 448 495.105 448 494V448Z" fill="#FF5D8E"/>
<path fill-rule="evenodd" clip-rule="evenodd" d="M448 448C448 446.895 447.105 446 446 446H439V496H446C447.105 496 448 495.105 448 494V448Z" fill="#FF326F"/>
<path d="M437 448C437 446.895 436.105 446 435 446H411C409.895 446 409 446.895 409 448V494C409 495.105 409.895 496 411 496H435C436.105 496 437 495.105 437 494V448Z" fill="#FFBF29"/>
<path d="M437 448C437 446.895 436.105 446 435 446H428V496H435C436.105 496 437 495.105 437 494V448Z" fill="#F5AC00"/>
<path d="M426 448C426 446.895 425.105 446 424 446H411C409.895 446 409 446.895 409 448V494C409 495.105 409.895 496 411 496H424C425.105 496 426 495.105 426 494V448Z" fill="#1075F0"/>
<path d="M426 448C426 446.895 425.105 446 424 446H417V496H424C425.105 496 426 495.105 426 494V448Z" fill="#467FFF"/>
<path d="M681 448C681 446.895 680.105 446 679 446H645C643.895 446 643 446.895 643 448V494C643 495.105 643.895 496 645 496H679C680.105 496 681 495.105 681 494V448Z" fill="#B34EE6"/>
<path d="M681 448C681 446.895 680.105 446 679 446H672V496H679C680.105 496 681 495.105 681 494V448Z" fill="#CF6FFF"/>
<path d="M680 446H673V496H680V446Z" fill="#EAEFFF"/>
<path d="M670 448C670 446.895 669.105 446 668 446H634C632.895 446 632 446.895 632 448V494C632 495.105 632.895 496 634 496H668C669.105 496 670 495.105 670 494V448Z" fill="#B34EE6"/>
<path d="M670 448C670 446.895 669.105 446 668 446H661V496H668C669.105 496 670 495.105 670 494V448Z" fill="#CF6FFF"/>
<path d="M669 446H662V496H669V446Z" fill="#EAEFFF"/>
<path d="M659 448C659 446.895 658.105 446 657 446H623C621.895 446 621 446.895 621 448V494C621 495.105 621.895 496 623 496H657C658.105 496 659 495.105 659 494V448Z" fill="#1075F0"/>
<path d="M659 448C659 446.895 658.105 446 657 446H650V496H657C658.105 496 659 495.105 659 494V448Z" fill="#467FFF"/>
<path d="M658 446H651V496H658V446Z" fill="#EAEFFF"/>
<path d="M647 448C647 446.895 646.105 446 645 446H611C609.895 446 609 446.895 609 448V494C609 495.105 609.895 496 611 496H645C646.105 496 647 495.105 647 494V448Z" fill="#FFBF29"/>
<path d="M647 448C647 446.895 646.105 446 645 446H638V496H645C646.105 496 647 495.105 647 494V448Z" fill="#F5AC00"/>
<path d="M637 448C637 446.895 636.105 446 635 446H601C599.895 446 599 446.895 599 448V494C599 495.105 599.895 496 601 496H635C636.105 496 637 495.105 637 494V448Z" fill="#1075F0"/>
<path d="M637 448C637 446.895 636.105 446 635 446H628V496H635C636.105 496 637 495.105 637 494V448Z" fill="#467FFF"/>
<path fill-rule="evenodd" clip-rule="evenodd" d="M386.68 580.08H395.08V606.96H386.68V580.08Z" fill="#A7C3FF"/>
<path fill-rule="evenodd" clip-rule="evenodd" d="M394.24 580.08H400.96V606.96H394.24V580.08Z" fill="#C8DAFF"/>
<path fill-rule="evenodd" clip-rule="evenodd" d="M348.88 580.08H357.28V606.96H348.88V580.08Z" fill="#A7C3FF"/>
<path fill-rule="evenodd" clip-rule="evenodd" d="M356.44 580.08H363.16V606.96H356.44V580.08Z" fill="#C8DAFF"/>
<path fill-rule="evenodd" clip-rule="evenodd" d="M259 321.36C259 319.504 260.504 318 262.36 318H404.32C406.176 318 407.68 319.504 407.68 321.36V590.16C407.68 592.016 406.176 593.52 404.32 593.52H262.36C260.504 593.52 259 592.016 259 590.16V321.36Z" fill="#9AB9FA"/>
<path fill-rule="evenodd" clip-rule="evenodd" d="M259 321.36C259 319.504 260.504 318 262.36 318H311.92V593.52H262.36C260.504 593.52 259 592.016 259 590.16V321.36Z" fill="#A7C3FF"/>
<path fill-rule="evenodd" clip-rule="evenodd" d="M362.32 318H404.32C406.175 318 407.68 319.504 407.68 321.36V590.16C407.68 592.016 406.176 593.52 404.32 593.52H362.32V318Z" fill="#A7C3FF"/>
<path fill-rule="evenodd" clip-rule="evenodd" d="M404.32 318C406.176 318 407.68 319.504 407.68 321.36V590.16C407.68 592.016 406.176 593.52 404.32 593.52H311.08C309.225 593.52 307.72 592.016 307.72 590.16V321.36C307.72 319.504 309.225 318 311.08 318H404.32ZM400.96 504.48H315.28V585.96H400.96V504.48ZM400.96 414.6H315.28V496.08H400.96V414.6ZM400.96 325.56H315.28V407.04H400.96V325.56Z" fill="#C8DAFF"/>
<path fill-rule="evenodd" clip-rule="evenodd" d="M163 321.36C163 319.504 164.504 318 166.36 318H308.32C310.176 318 311.68 319.504 311.68 321.36V590.16C311.68 592.016 310.176 593.52 308.32 593.52H166.36C164.504 593.52 163 592.016 163 590.16V321.36Z" fill="#9AB9FA"/>
<path fill-rule="evenodd" clip-rule="evenodd" d="M163 321.36C163 319.504 164.504 318 166.36 318H215.92V593.52H166.36C164.504 593.52 163 592.016 163 590.16V321.36Z" fill="#A7C3FF"/>
<path fill-rule="evenodd" clip-rule="evenodd" d="M266.32 318H308.32C310.175 318 311.68 319.504 311.68 321.36V590.16C311.68 592.016 310.176 593.52 308.32 593.52H266.32V318Z" fill="#A7C3FF"/>
<path fill-rule="evenodd" clip-rule="evenodd" d="M308.32 318C310.176 318 311.68 319.504 311.68 321.36V590.16C311.68 592.016 310.176 593.52 308.32 593.52H215.08C213.225 593.52 211.72 592.016 211.72 590.16V321.36C211.72 319.504 213.225 318 215.08 318H308.32ZM304.96 504.48H219.28V585.96H304.96V504.48ZM304.96 414.6H219.28V496.08H304.96V414.6ZM304.96 325.56H219.28V407.04H304.96V325.56Z" fill="#C8DAFF"/>
<rect x="115.2" y="580.08" width="11.76" height="26.88" fill="#A7C3FF"/>
<path fill-rule="evenodd" clip-rule="evenodd" d="M122.76 580.08H129.48V606.96H122.76V580.08Z" fill="#C8DAFF"/>
<rect x="71.52" y="580.08" width="11.76" height="26.88" fill="#A7C3FF"/>
<path fill-rule="evenodd" clip-rule="evenodd" d="M79.0801 580.08H85.8001V606.96H79.0801V580.08Z" fill="#C8DAFF"/>
<path fill-rule="evenodd" clip-rule="evenodd" d="M69 321.36C69 319.504 70.5043 318 72.36 318H214.32C216.176 318 217.68 319.504 217.68 321.36V590.16C217.68 592.016 216.176 593.52 214.32 593.52H72.36C70.5043 593.52 69 592.016 69 590.16V321.36Z" fill="#9AB9FA"/>
<path fill-rule="evenodd" clip-rule="evenodd" d="M69 321.36C69 319.504 70.5043 318 72.36 318H121.92V593.52H72.36C70.5043 593.52 69 592.016 69 590.16V321.36Z" fill="#A7C3FF"/>
<path fill-rule="evenodd" clip-rule="evenodd" d="M172.32 318H214.32C216.175 318 217.68 319.504 217.68 321.36V590.16C217.68 592.016 216.176 593.52 214.32 593.52H172.32V318Z" fill="#A7C3FF"/>
<path fill-rule="evenodd" clip-rule="evenodd" d="M214.32 318C216.176 318 217.68 319.504 217.68 321.36V590.16C217.68 592.016 216.176 593.52 214.32 593.52H121.08C119.225 593.52 117.72 592.016 117.72 590.16V321.36C117.72 319.504 119.225 318 121.08 318H214.32ZM210.96 504.48H125.28V585.96H210.96V504.48ZM210.96 414.6H125.28V496.08H210.96V414.6ZM210.96 325.56H125.28V407.04H210.96V325.56Z" fill="#C8DAFF"/>
<path fill-rule="evenodd" clip-rule="evenodd" d="M245 578C245 576.895 245.895 576 247 576H301C302.105 576 303 576.895 303 578V584C303 585.105 302.105 586 301 586H247C245.895 586 245 585.105 245 584V578Z" fill="#FF326F"/>
<path fill-rule="evenodd" clip-rule="evenodd" d="M245 578C245 576.895 245.895 576 247 576L276 576C277.105 576 278 576.895 278 578V584C278 585.105 277.105 586 276 586H247C245.895 586 245 585.105 245 584V578Z" fill="#FF5D8E"/>
<path d="M247 578.8C247 577.806 247.806 577 248.8 577L302 577C302.552 577 303 577.448 303 578V584C303 584.552 302.552 585 302 585H248.8C247.806 585 247 584.194 247 583.2V578.8Z" fill="#EAEFFF"/>
<path fill-rule="evenodd" clip-rule="evenodd" d="M278 578.8C278 577.806 278.806 577 279.8 577H302C302.552 577 303 577.448 303 578V584C303 584.552 302.552 585 302 585H279.8C278.806 585 278 584.194 278 583.2V578.8Z" fill="#C1D7FF"/>
<path d="M245 568C245 566.895 245.895 566 247 566H301C302.105 566 303 566.895 303 568V574C303 575.105 302.105 576 301 576H247C245.895 576 245 575.105 245 574V568Z" fill="#F5AC00"/>
<path d="M245 568C245 566.895 245.895 566 247 566L276 566C277.105 566 278 566.895 278 568V574C278 575.105 277.105 576 276 576H247C245.895 576 245 575.105 245 574V568Z" fill="#FFBF29"/>
<path d="M247 568.8C247 567.806 247.806 567 248.8 567L302 567C302.552 567 303 567.448 303 568V574C303 574.552 302.552 575 302 575H248.8C247.806 575 247 574.194 247 573.2V568.8Z" fill="#EAEFFF"/>
<path fill-rule="evenodd" clip-rule="evenodd" d="M278 568.8C278 567.806 278.806 567 279.8 567H302C302.552 567 303 567.448 303 568V574C303 574.552 302.552 575 302 575H279.8C278.806 575 278 574.194 278 573.2V568.8Z" fill="#C1D7FF"/>
<path d="M245 548C245 546.895 245.895 546 247 546H301C302.105 546 303 546.895 303 548V554C303 555.105 302.105 556 301 556H247C245.895 556 245 555.105 245 554V548Z" fill="#F5AC00"/>
<path d="M245 548C245 546.895 245.895 546 247 546L276 546C277.105 546 278 546.895 278 548V554C278 555.105 277.105 556 276 556H247C245.895 556 245 555.105 245 554V548Z" fill="#FFBF29"/>
<path d="M247 548.8C247 547.806 247.806 547 248.8 547L302 547C302.552 547 303 547.448 303 548V554C303 554.552 302.552 555 302 555H248.8C247.806 555 247 554.194 247 553.2V548.8Z" fill="#EAEFFF"/>
<path fill-rule="evenodd" clip-rule="evenodd" d="M278 548.8C278 547.806 278.806 547 279.8 547H302C302.552 547 303 547.448 303 548V554C303 554.552 302.552 555 302 555H279.8C278.806 555 278 554.194 278 553.2V548.8Z" fill="#C1D7FF"/>
<path d="M245 558C245 556.895 245.895 556 247 556H301C302.105 556 303 556.895 303 558V564C303 565.105 302.105 566 301 566H247C245.895 566 245 565.105 245 564V558Z" fill="#B34EE6"/>
<path d="M245 558C245 556.895 245.895 556 247 556L276 556C277.105 556 278 556.895 278 558V564C278 565.105 277.105 566 276 566H247C245.895 566 245 565.105 245 564V558Z" fill="#CF6FFF"/>
<path d="M245 558.8C245 557.806 245.806 557 246.8 557L275 557C276.105 557 277 557.895 277 559V563C277 564.105 276.105 565 275 565H246.8C245.806 565 245 564.194 245 563.2V558.8Z" fill="#EAEFFF"/>
<path d="M269.217 538.812H246.348L229.408 580.315H252.277L269.217 538.812Z" fill="#1075F0"/>
<path d="M269.217 538.812C269.217 538.812 272.014 539.874 273.696 541.48C275.377 543.085 275.521 545.234 275.521 545.234L258.394 586.244C258.394 586.244 258.041 583.829 256.417 582.495C254.793 581.161 252.277 580.315 252.277 580.315L269.217 538.812Z" fill="#467FFF"/>
<path d="M252.277 580.314H229.925C229.925 580.314 232.803 582.258 233.97 583.279C235.138 584.299 236.705 586.243 236.705 586.243H258.385C258.385 586.243 258.052 583.838 256.417 582.495C254.782 581.152 252.277 580.314 252.277 580.314Z" fill="#EFF3FF"/>
<path d="M302 359C302 357.895 301.105 357 300 357H266C264.895 357 264 357.895 264 359V405C264 406.105 264.895 407 266 407H300C301.105 407 302 406.105 302 405V359Z" fill="#B34EE6"/>
<path d="M302 359C302 357.895 301.105 357 300 357H293V407H300C301.105 407 302 406.105 302 405V359Z" fill="#CF6FFF"/>
<path d="M301 357H294V407H301V357Z" fill="#EAEFFF"/>
<path fill-rule="evenodd" clip-rule="evenodd" d="M290 359C290 357.895 289.105 357 288 357H254C252.895 357 252 357.895 252 359V405C252 406.105 252.895 407 254 407H288C289.105 407 290 406.105 290 405V359Z" fill="#FF5D8E"/>
<path fill-rule="evenodd" clip-rule="evenodd" d="M290 359C290 357.895 289.105 357 288 357H281V407H288C289.105 407 290 406.105 290 405V359Z" fill="#FF326F"/>
<path d="M268 359C268 357.895 267.105 357 266 357H232C230.895 357 230 357.895 230 359V405C230 406.105 230.895 407 232 407H266C267.105 407 268 406.105 268 405V359Z" fill="#B34EE6"/>
<path d="M268 359C268 357.895 267.105 357 266 357H259V407H266C267.105 407 268 406.105 268 405V359Z" fill="#CF6FFF"/>
<path d="M267 357H260V407H267V357Z" fill="#EAEFFF"/>
<path d="M392 359C392 357.895 391.105 357 390 357H356C354.895 357 354 357.895 354 359V405C354 406.105 354.895 407 356 407H390C391.105 407 392 406.105 392 405V359Z" fill="#B34EE6"/>
<path d="M392 359C392 357.895 391.105 357 390 357H383V407H390C391.105 407 392 406.105 392 405V359Z" fill="#CF6FFF"/>
<path d="M391 357H384V407H391V357Z" fill="#EAEFFF"/>
<path d="M380 359C380 357.895 379.105 357 378 357H344C342.895 357 342 357.895 342 359V405C342 406.105 342.895 407 344 407H378C379.105 407 380 406.105 380 405V359Z" fill="#1075F0"/>
<path d="M380 359C380 357.895 379.105 357 378 357H371V407H378C379.105 407 380 406.105 380 405V359Z" fill="#467FFF"/>
<rect width="38" height="54" rx="2" transform="matrix(-1 0 0 1 364 353)" fill="#40B955"/>
<path d="M364 355C364 353.895 363.105 353 362 353H355V407H362C363.105 407 364 406.105 364 405V355Z" fill="#4ED266"/>
<path fill-rule="evenodd" clip-rule="evenodd" d="M35.3939 574.229H48.6995L45.3731 596.405H33.1763L35.3939 574.229Z" fill="#616988"/>
<path fill-rule="evenodd" clip-rule="evenodd" d="M33.4599 593.31C32.7637 593.028 31.9657 593.47 31.8663 594.214L30.5889 603.781H70.8753C70.8753 601.243 69.1223 599.044 66.6592 598.432C60.9862 597.022 51.42 594.441 49.835 592.709C47.557 590.22 44.3345 593.594 41.5273 594.726C39.5247 595.534 35.5652 594.163 33.4599 593.31Z" fill="#111F53"/>
<path fill-rule="evenodd" clip-rule="evenodd" d="M30.5889 601.949H70.8753V605.275H30.5889V601.949Z" fill="#525151"/>
<path fill-rule="evenodd" clip-rule="evenodd" d="M42.0318 383.885L38.0992 483.107C38.0992 483.107 33.0464 499.672 33.0464 510.598C33.0464 521.523 31.3281 579.034 31.3281 579.034H49.4238L83.2422 383.885H42.0318Z" fill="#525151"/>
<path fill-rule="evenodd" clip-rule="evenodd" d="M96.7471 574.229H110.053L112.64 596.405H100.443L96.7471 574.229Z" fill="#616988"/>
<path fill-rule="evenodd" clip-rule="evenodd" d="M100.089 593.351C99.3633 593.06 98.5387 593.554 98.4866 594.334L97.856 603.781H138.142C138.142 601.248 136.383 599.058 133.919 598.47C128.049 597.068 117.962 594.456 116.363 592.709C114.085 590.22 110.862 593.594 108.055 594.726C106.084 595.521 102.218 594.206 100.089 593.351Z" fill="#1B2E76"/>
<path fill-rule="evenodd" clip-rule="evenodd" d="M97.856 601.949H138.142V605.275H97.856V601.949Z" fill="#525151"/>
<path fill-rule="evenodd" clip-rule="evenodd" d="M47.7603 384.254C47.7603 384.254 48.6081 393.964 53.8912 403.303C59.1743 412.643 68.8926 421.613 68.8926 421.613L83.5744 487.172C83.5744 487.172 82.2177 502.629 82.2177 513.554C82.2177 524.48 92.3266 579.404 92.3266 579.404H112.27L102.38 384.254H47.7603Z" fill="#6B6B6B"/>
<path fill-rule="evenodd" clip-rule="evenodd" d="M102.416 387.512L93.2164 397.928L92.6816 386.472L102.416 387.512Z" fill="#282828"/>
<path d="M92.4653 385.386L104.99 579.034" stroke="#0D0D0D" stroke-width="0.5544"/>
<path fill-rule="evenodd" clip-rule="evenodd" d="M88.8525 264.628L92.5686 271.916C92.6754 272.126 92.5623 272.38 92.3354 272.441L88.8525 273.378V264.628Z" fill="#F19B93"/>
<path fill-rule="evenodd" clip-rule="evenodd" d="M64.0088 294.321H79.6759L78.1975 286.967C78.1975 286.967 84.6384 287.653 87.5707 283.466C90.503 279.279 90.0983 257.472 90.0983 257.472H64.0088V294.321Z" fill="#FFC4A7"/>
<path fill-rule="evenodd" clip-rule="evenodd" d="M86.6497 274.516L90.1474 273.815C90.1474 273.815 90.1961 274.526 89.6881 275.19C89.1476 275.897 86.1128 276.465 86.1128 276.465L86.6497 274.516Z" fill="#0A2650"/>
<path fill-rule="evenodd" clip-rule="evenodd" d="M80.7692 267.102L81.0648 273.777C81.1041 274.665 81.9124 275.318 82.7886 275.169L86.6496 274.516L87.0055 281.218C87.0235 281.557 87.2705 281.841 87.6041 281.905L88.5291 282.082C88.7302 282.121 88.8971 282.261 88.9703 282.452C89.8764 284.818 87.8538 287.267 85.3595 286.824L84.0386 286.59C81.5108 286.141 79.634 283.997 79.5242 281.432L78.8335 265.285L80.7692 267.102Z" fill="#0A2650"/>
<path fill-rule="evenodd" clip-rule="evenodd" d="M62.1385 278.394C62.585 279.522 63.6748 280.262 64.8876 280.262H70.6097C71.7217 280.262 72.7414 279.638 73.1134 278.59C73.7884 276.689 74.6125 273.438 73.8609 270.282C72.6996 265.407 78.7391 263.316 78.7391 263.316L79.0779 270.72C79.0964 271.122 79.3657 271.471 79.7512 271.59C80.3569 271.776 80.9735 271.333 80.9891 270.699L81.2129 261.595C81.2675 259.373 83.2059 257.663 85.4275 257.715C89.0006 257.8 93.8045 257.565 95.126 255.827C98.9997 250.731 92.7758 242.193 92.7758 242.193C92.7758 242.193 89.9066 246.128 86.1127 245.564C80.7966 244.774 73.8609 242 67.6699 243.996C62.7072 245.595 57.1997 254.24 55.2096 257.607C54.7082 258.455 54.6496 259.48 55.0124 260.396L62.1385 278.394Z" fill="#0A2650"/>
<path fill-rule="evenodd" clip-rule="evenodd" d="M78.1975 286.967L74.9312 286.493L79.6759 294.321L78.1975 286.967Z" fill="#F19B93"/>
<path fill-rule="evenodd" clip-rule="evenodd" d="M32.9768 313.032L10.6787 342.28C8.96125 344.532 8.68218 347.568 9.96014 350.096L30.02 389.777C30.02 389.777 28.9112 405.276 34.5753 407.266C35.6783 407.654 37.5785 416.513 39.796 413.817C40.4088 413.073 40.698 396.514 40.698 396.514L38.2018 384.4L27.2986 348.55L45.5938 323.366L32.9768 313.032Z" fill="#FFC4A7"/>
<path fill-rule="evenodd" clip-rule="evenodd" d="M42.9065 297.541C46.3654 293.427 52.5255 292.95 56.5765 296.482L58.4249 298.094C62.4221 301.579 62.8405 307.643 59.3599 311.644L29.677 345.765L30.0466 353.106L10.8274 355.324L7.27668 351.504C4.3542 348.36 4.2341 343.531 6.99668 340.245L42.9065 297.541Z" fill="#282828"/>
<path fill-rule="evenodd" clip-rule="evenodd" d="M44.0756 301.206C44.4111 296.978 47.94 293.719 52.1813 293.719H96.7834C101.274 293.719 104.915 297.359 104.915 301.85V386.858H37.2778L44.0756 301.206Z" fill="#FFA400"/>
<path fill-rule="evenodd" clip-rule="evenodd" d="M90.6611 315.92L104.843 364.899V338.174L90.6611 315.92Z" fill="#080708" fill-opacity="0.340226"/>
<path d="M154.07 273.838C153.936 272.741 154.715 271.743 155.812 271.609L189.558 267.465C190.655 267.331 191.653 268.11 191.787 269.207L197.393 314.864C197.528 315.96 196.748 316.958 195.652 317.093L161.905 321.236C160.809 321.371 159.811 320.591 159.676 319.495L154.07 273.838Z" fill="#1075F0"/>
<path d="M154.07 273.838C153.936 272.741 154.715 271.743 155.812 271.609L162.76 270.756L168.853 320.383L161.905 321.236C160.809 321.371 159.811 320.591 159.676 319.495L154.07 273.838Z" fill="#467FFF"/>
<path fill-rule="evenodd" clip-rule="evenodd" d="M111.434 320.091L119.823 336.474L150.604 306.89C150.72 306.779 150.796 306.633 150.822 306.476L152.639 295.325C152.639 295.325 159.398 283.594 160.595 287.877C161.042 289.477 156.663 291.395 157.389 296.623C157.524 297.599 165.736 291.578 169.183 289.003C169.72 288.601 170.474 289.067 170.36 289.729L168.087 302.908C168.057 303.081 167.967 303.238 167.833 303.35L156.645 312.699L128.103 351.665C123.668 357.719 114.465 357.188 110.757 350.663L97.2279 326.859L111.434 320.091Z" fill="#FFC4A7"/>
<path fill-rule="evenodd" clip-rule="evenodd" d="M105.466 299.368C103.178 294.528 97.3769 292.491 92.5658 294.838L90.6377 295.778C85.7552 298.16 83.8157 304.112 86.3578 308.912L108.244 350.244C112.094 357.514 121.889 358.966 127.683 353.125L134.574 346.177L125.958 328.957L120.843 331.893L105.466 299.368Z" fill="#282828"/>
<path d="M205.463 536.271H174.124V586.244H205.463V536.271Z" fill="#1075F0"/>
<path d="M205.463 536.271H196.146V586.244H205.463V536.271Z" fill="#467FFF"/>
<path d="M190.217 538.812H167.348L150.408 580.315H173.277L190.217 538.812Z" fill="#FFBF29"/>
<path d="M190.217 538.812C190.217 538.812 193.014 539.874 194.696 541.48C196.377 543.085 196.521 545.234 196.521 545.234L179.394 586.244C179.394 586.244 179.041 583.829 177.417 582.495C175.793 581.161 173.277 580.315 173.277 580.315L190.217 538.812Z" fill="#F5AC00"/>
<path d="M173.277 580.314H150.925C150.925 580.314 153.803 582.258 154.97 583.279C156.138 584.299 157.705 586.243 157.705 586.243H179.385C179.385 586.243 179.052 583.838 177.417 582.495C175.782 581.152 173.277 580.314 173.277 580.314Z" fill="#EFF3FF"/>
<path fill-rule="evenodd" clip-rule="evenodd" d="M208 448C208 446.895 207.105 446 206 446H172C170.895 446 170 446.895 170 448V494C170 495.105 170.895 496 172 496H206C207.105 496 208 495.105 208 494V448Z" fill="#FF5D8E"/>
<path fill-rule="evenodd" clip-rule="evenodd" d="M208 448C208 446.895 207.105 446 206 446H199V496H206C207.105 496 208 495.105 208 494V448Z" fill="#FF326F"/>
<path fill-rule="evenodd" clip-rule="evenodd" d="M197 448C197 446.895 196.105 446 195 446H161C159.895 446 159 446.895 159 448V494C159 495.105 159.895 496 161 496H195C196.105 496 197 495.105 197 494V448Z" fill="#FF5D8E"/>
<path fill-rule="evenodd" clip-rule="evenodd" d="M197 448C197 446.895 196.105 446 195 446H188V496H195C196.105 496 197 495.105 197 494V448Z" fill="#FF326F"/>
<path d="M186 448C186 446.895 185.105 446 184 446H150C148.895 446 148 446.895 148 448V494C148 495.105 148.895 496 150 496H184C185.105 496 186 495.105 186 494V448Z" fill="#FFBF29"/>
<path d="M186 448C186 446.895 185.105 446 184 446H177V496H184C185.105 496 186 495.105 186 494V448Z" fill="#F5AC00"/>
<path fill-rule="evenodd" clip-rule="evenodd" d="M175 448C175 446.895 174.105 446 173 446H139C137.895 446 137 446.895 137 448V494C137 495.105 137.895 496 139 496H173C174.105 496 175 495.105 175 494V448Z" fill="#FF5D8E"/>
<path fill-rule="evenodd" clip-rule="evenodd" d="M175 448C175 446.895 174.105 446 173 446H166V496H173C174.105 496 175 495.105 175 494V448Z" fill="#FF326F"/>
<path d="M144 448C144 446.895 143.105 446 142 446H127C125.895 446 125 446.895 125 448V494C125 495.105 125.895 496 127 496H142C143.105 496 144 495.105 144 494V448Z" fill="#1075F0"/>
<path d="M144 448C144 446.895 143.105 446 142 446H135V496H142C143.105 496 144 495.105 144 494V448Z" fill="#467FFF"/>
<path d="M143 446H136V496H143V446Z" fill="#EAEFFF"/>
<path d="M208 359C208 357.895 207.105 357 206 357H172C170.895 357 170 357.895 170 359V405C170 406.105 170.895 407 172 407H206C207.105 407 208 406.105 208 405V359Z" fill="#B34EE6"/>
<path d="M208 359C208 357.895 207.105 357 206 357H199V407H206C207.105 407 208 406.105 208 405V359Z" fill="#CF6FFF"/>
<path d="M207 357H200V407H207V357Z" fill="#EAEFFF"/>
<path d="M198 359C198 357.895 197.105 357 196 357H162C160.895 357 160 357.895 160 359V405C160 406.105 160.895 407 162 407H196C197.105 407 198 406.105 198 405V359Z" fill="#B34EE6"/>
<path d="M198 359C198 357.895 197.105 357 196 357H189V407H196C197.105 407 198 406.105 198 405V359Z" fill="#CF6FFF"/>
<path d="M197 357H190V407H197V357Z" fill="#EAEFFF"/>
<path d="M179 359C179 357.895 178.105 357 177 357H143C141.895 357 141 357.895 141 359V405C141 406.105 141.895 407 143 407H177C178.105 407 179 406.105 179 405V359Z" fill="#1075F0"/>
<path d="M179 359C179 357.895 178.105 357 177 357H170V407H177C178.105 407 179 406.105 179 405V359Z" fill="#467FFF"/>
<path d="M164.696 360H141.827L124.887 401.503H147.756L164.696 360Z" fill="#FFBF29"/>
<path d="M164.696 360C164.696 360 167.493 361.063 169.175 362.668C170.857 364.274 171 366.422 171 366.422L153.873 407.432C153.873 407.432 153.521 405.017 151.897 403.683C150.273 402.349 147.756 401.503 147.756 401.503L164.696 360Z" fill="#F5AC00"/>
<path d="M147.756 401.503H125.404C125.404 401.503 128.283 403.447 129.45 404.467C130.617 405.488 132.185 407.432 132.185 407.432H153.864C153.864 407.432 153.532 405.026 151.897 403.683C150.261 402.34 147.756 401.503 147.756 401.503Z" fill="#EFF3FF"/>
<path d="M295 448.271C295 447.166 294.105 446.271 293 446.271H259C257.895 446.271 257 447.166 257 448.271V494C257 495.105 257.895 496 259 496H293C294.105 496 295 495.105 295 494V448.271Z" fill="#1075F0"/>
<path d="M295 448.271C295 447.166 294.105 446.271 293 446.271H286V496H293C294.105 496 295 495.105 295 494V448.271Z" fill="#467FFF"/>
<path fill-rule="evenodd" clip-rule="evenodd" d="M281.463 446.271H250.124V496.244H281.463V446.271Z" fill="#FF5D8E"/>
<path fill-rule="evenodd" clip-rule="evenodd" d="M281.463 446.271H272.146V496.244H281.463V446.271Z" fill="#FF326F"/>
<path d="M266.217 448.812H243.348L226.408 490.315H249.277L266.217 448.812Z" fill="#CF6FFF"/>
<path d="M266.217 448.812C266.217 448.812 269.014 449.874 270.696 451.48C272.377 453.085 272.521 455.234 272.521 455.234L255.394 496.244C255.394 496.244 255.041 493.829 253.417 492.495C251.793 491.161 249.277 490.315 249.277 490.315L266.217 448.812Z" fill="#B34EE6"/>
<path d="M249.277 490.314H226.925C226.925 490.314 229.803 492.258 230.97 493.279C232.138 494.299 233.705 496.243 233.705 496.243H255.385C255.385 496.243 255.052 493.838 253.417 492.495C251.782 491.152 249.277 490.314 249.277 490.314Z" fill="#EFF3FF"/>
<path d="M143 438C143 436.895 143.895 436 145 436H199C200.105 436 201 436.895 201 438V444C201 445.105 200.105 446 199 446H145C143.895 446 143 445.105 143 444V438Z" fill="#F5AC00"/>
<path d="M143 438C143 436.895 143.895 436 145 436L174 436C175.105 436 176 436.895 176 438V444C176 445.105 175.105 446 174 446H145C143.895 446 143 445.105 143 444V438Z" fill="#FFBF29"/>
<path d="M145 438.8C145 437.806 145.806 437 146.8 437L200 437C200.552 437 201 437.448 201 438V444C201 444.552 200.552 445 200 445H146.8C145.806 445 145 444.194 145 443.2V438.8Z" fill="#EAEFFF"/>
<path fill-rule="evenodd" clip-rule="evenodd" d="M176 438.8C176 437.806 176.806 437 177.8 437H200C200.552 437 201 437.448 201 438V444C201 444.552 200.552 445 200 445H177.8C176.806 445 176 444.194 176 443.2V438.8Z" fill="#C1D7FF"/>
<rect width="38" height="54" rx="2" transform="matrix(-1 0 0 1 354 353)" fill="#B34EE6"/>
<path d="M354 355C354 353.895 353.105 353 352 353H345V407H352C353.105 407 354 406.105 354 405V355Z" fill="#CF6FFF"/>
<path d="M142 538C142 536.895 141.105 536 140 536H127C125.895 536 125 536.895 125 538V584C125 585.105 125.895 586 127 586H140C141.105 586 142 585.105 142 584V538Z" fill="#B34EE6"/>
<path d="M142 538C142 536.895 141.105 536 140 536H133V586H140C141.105 586 142 585.105 142 584V538Z" fill="#CF6FFF"/>
<path d="M141 536H134V586H141V536Z" fill="#EAEFFF"/>
<path d="M399 538C399 536.895 398.105 536 397 536H363C361.895 536 361 536.895 361 538V584C361 585.105 361.895 586 363 586H397C398.105 586 399 585.105 399 584V538Z" fill="#B34EE6"/>
<path d="M399 538C399 536.895 398.105 536 397 536H390V586H397C398.105 586 399 585.105 399 584V538Z" fill="#CF6FFF"/>
<path d="M398 536H391V586H398V536Z" fill="#EAEFFF"/>
<path d="M387 538C387 536.895 386.105 536 385 536H351C349.895 536 349 536.895 349 538V584C349 585.105 349.895 586 351 586H385C386.105 586 387 585.105 387 584V538Z" fill="#1075F0"/>
<path d="M387 538C387 536.895 386.105 536 385 536H378V586H385C386.105 586 387 585.105 387 584V538Z" fill="#467FFF"/>
<path d="M376 538C376 536.895 375.105 536 374 536H340C338.895 536 338 536.895 338 538V584C338 585.105 338.895 586 340 586H374C375.105 586 376 585.105 376 584V538Z" fill="#1075F0"/>
<path d="M376 538C376 536.895 375.105 536 374 536H367V586H374C375.105 586 376 585.105 376 584V538Z" fill="#467FFF"/>
<path d="M365 538C365 536.895 364.105 536 363 536H329C327.895 536 327 536.895 327 538V584C327 585.105 327.895 586 329 586H363C364.105 586 365 585.105 365 584V538Z" fill="#1075F0"/>
<path d="M365 538C365 536.895 364.105 536 363 536H356V586H363C364.105 586 365 585.105 365 584V538Z" fill="#467FFF"/>
<path fill-rule="evenodd" clip-rule="evenodd" d="M354 538C354 536.895 353.105 536 352 536H318C316.895 536 316 536.895 316 538V584C316 585.105 316.895 586 318 586H352C353.105 586 354 585.105 354 584V538Z" fill="#FF5D8E"/>
<path fill-rule="evenodd" clip-rule="evenodd" d="M354 538C354 536.895 353.105 536 352 536H345V586H352C353.105 586 354 585.105 354 584V538Z" fill="#FF326F"/>
<path d="M343 538C343 536.895 342.105 536 341 536H317C315.895 536 315 536.895 315 538V584C315 585.105 315.895 586 317 586H341C342.105 586 343 585.105 343 584V538Z" fill="#FFBF29"/>
<path d="M343 538C343 536.895 342.105 536 341 536H334V586H341C342.105 586 343 585.105 343 584V538Z" fill="#F5AC00"/>
<path d="M332 538C332 536.895 331.105 536 330 536H317C315.895 536 315 536.895 315 538V584C315 585.105 315.895 586 317 586H330C331.105 586 332 585.105 332 584V538Z" fill="#1075F0"/>
<path d="M332 538C332 536.895 331.105 536 330 536H323V586H330C331.105 586 332 585.105 332 584V538Z" fill="#467FFF"/>
<path d="M397 448C397 446.895 396.105 446 395 446H361C359.895 446 359 446.895 359 448V494C359 495.105 359.895 496 361 496H395C396.105 496 397 495.105 397 494V448Z" fill="#B34EE6"/>
<path d="M397 448C397 446.895 396.105 446 395 446H388V496H395C396.105 496 397 495.105 397 494V448Z" fill="#CF6FFF"/>
<path d="M396 446H389V496H396V446Z" fill="#EAEFFF"/>
<path d="M386 448C386 446.895 385.105 446 384 446H350C348.895 446 348 446.895 348 448V494C348 495.105 348.895 496 350 496H384C385.105 496 386 495.105 386 494V448Z" fill="#B34EE6"/>
<path d="M386 448C386 446.895 385.105 446 384 446H377V496H384C385.105 496 386 495.105 386 494V448Z" fill="#CF6FFF"/>
<path d="M385 446H378V496H385V446Z" fill="#EAEFFF"/>
<path d="M375 448C375 446.895 374.105 446 373 446H339C337.895 446 337 446.895 337 448V494C337 495.105 337.895 496 339 496H373C374.105 496 375 495.105 375 494V448Z" fill="#B34EE6"/>
<path d="M375 448C375 446.895 374.105 446 373 446H366V496H373C374.105 496 375 495.105 375 494V448Z" fill="#CF6FFF"/>
<path d="M374 446H367V496H374V446Z" fill="#EAEFFF"/>
<path d="M363 448C363 446.895 362.105 446 361 446H327C325.895 446 325 446.895 325 448V494C325 495.105 325.895 496 327 496H361C362.105 496 363 495.105 363 494V448Z" fill="#FFBF29"/>
<path d="M363 448C363 446.895 362.105 446 361 446H354V496H361C362.105 496 363 495.105 363 494V448Z" fill="#F5AC00"/>
<path d="M353 448C353 446.895 352.105 446 351 446H317C315.895 446 315 446.895 315 448V494C315 495.105 315.895 496 317 496H351C352.105 496 353 495.105 353 494V448Z" fill="#1075F0"/>
<path d="M353 448C353 446.895 352.105 446 351 446H344V496H351C352.105 496 353 495.105 353 494V448Z" fill="#467FFF"/>
<path d="M328 438C328 436.895 328.895 436 330 436H384C385.105 436 386 436.895 386 438V444C386 445.105 385.105 446 384 446H330C328.895 446 328 445.105 328 444V438Z" fill="#B34EE6"/>
<path d="M328 438C328 436.895 328.895 436 330 436L359 436C360.105 436 361 436.895 361 438V444C361 445.105 360.105 446 359 446H330C328.895 446 328 445.105 328 444V438Z" fill="#CF6FFF"/>
<path d="M328 438.8C328 437.806 328.806 437 329.8 437L358 437C359.105 437 360 437.895 360 439V443C360 444.105 359.105 445 358 445H329.8C328.806 445 328 444.194 328 443.2V438.8Z" fill="#EAEFFF"/>
<path fill-rule="evenodd" clip-rule="evenodd" d="M447.076 549.16L459.2 634.84L452.844 634.756L440.72 550.056L447.076 549.16Z" fill="#A7C3FF"/>
<path fill-rule="evenodd" clip-rule="evenodd" d="M441.923 549.16L429.8 634.84L436.156 634.756L448.28 550.056L441.923 549.16Z" fill="#C8DAFF"/>
<path fill-rule="evenodd" clip-rule="evenodd" d="M482.356 549.16L494.48 634.84L488.124 634.756L476 550.056L482.356 549.16Z" fill="#A7C3FF"/>
<path fill-rule="evenodd" clip-rule="evenodd" d="M404.964 549.16L392.84 634.84L399.196 634.756L411.32 550.056L404.964 549.16Z" fill="#C8DAFF"/>
<path fill-rule="evenodd" clip-rule="evenodd" d="M487.004 564.2C492.525 564.2 497 559.725 497 554.204C497 548.683 492.525 544.208 487.004 544.208H446.383C440.661 544.208 435.88 539.855 435.343 534.159L428.836 465.049C428.299 459.353 423.518 455 417.797 455H391.374C384.915 455 379.823 460.499 380.318 466.938L387.012 553.962C387.457 559.739 392.274 564.2 398.068 564.2H487.004Z" fill="#A7C3FF"/>
<path fill-rule="evenodd" clip-rule="evenodd" d="M391.642 455C391.236 455 390.834 455.022 390.439 455.065C390.392 455.474 390.368 455.891 390.368 456.313C390.368 456.598 390.379 456.883 390.401 457.166L397.09 543.885C397.536 549.661 402.353 554.12 408.146 554.12H496.844L496.998 554.118L497 553.925C497 548.418 492.536 543.954 487.03 543.954H446.528C440.808 543.954 436.027 539.603 435.489 533.909L428.986 465.046C428.448 459.351 423.667 455 417.947 455H391.642Z" fill="#C8DAFF"/>
<path fill-rule="evenodd" clip-rule="evenodd" d="M481.824 631.318C485.162 632.106 495.058 631.219 502.475 631.738C505.815 631.971 512.452 631.221 513.591 630.706C515.234 629.964 512.684 627.855 511.012 627.18C508.292 626.083 503.994 624.333 500.982 623.022C496.26 620.966 491.979 619.694 491.454 616.478C490.929 613.263 497.09 597.697 497.09 597.697L483.749 603.192C483.749 603.192 480.894 614.414 479.476 620.066C478.058 625.717 478.75 627.687 478.75 627.687C478.75 627.687 478.487 630.53 481.824 631.318Z" fill="#FFC4A7"/>
<path fill-rule="evenodd" clip-rule="evenodd" d="M478.29 619.298C477.938 620.178 476.569 625.967 476.569 625.967V628.763C476.569 628.763 494.8 632.956 500.912 632.956C507.024 632.956 517.957 629.592 517.957 629.592C517.957 629.592 517.499 626.786 516.599 626.382C515.699 625.978 507.579 624.918 506.37 624.382C505.161 623.845 495.39 618.768 493.475 618.768C491.56 618.768 491.089 619.062 489.559 620.115C488.029 621.168 485.328 622.268 482.38 621.817C479.432 621.367 480.734 618.544 480.044 618.228C479.353 617.912 478.643 618.417 478.29 619.298Z" fill="#D8DDF3"/>
<path fill-rule="evenodd" clip-rule="evenodd" d="M475.757 625.998C475.141 626.397 474.632 633.004 475.007 633.288C475.382 633.573 477.632 635.648 484.973 635.648C486.156 635.648 490.803 633.807 492.207 633.813C494.843 633.825 507.114 635.41 509.559 634.847C514.117 633.796 518.553 630.58 518.553 629.886C518.553 629.191 518.534 628.901 518.326 628.901C518.118 628.901 508.197 632.027 505.151 631.577C504.513 631.483 495.732 629.187 492.869 629.101C491.536 629.062 484.552 630.456 484.552 630.456C484.552 630.456 476.057 625.804 475.757 625.998Z" fill="#93B2CC"/>
<path fill-rule="evenodd" clip-rule="evenodd" d="M433.236 515.466C433.236 515.466 438.533 547.405 458.998 547.405C479.463 547.405 497.926 544.84 497.926 544.84C497.926 544.84 494.648 558.273 491.704 569.59C488.761 580.907 482.145 606.327 482.145 606.327H495.251L524.479 545.915C530.228 534.032 522.264 520.078 509.109 518.984L466.797 515.466V510.426H433.236V515.466Z" fill="#0A2650"/>
<path fill-rule="evenodd" clip-rule="evenodd" d="M529.417 631.754C532.755 632.535 542.65 631.666 550.067 632.185C553.407 632.418 558.934 631.29 560.073 630.782C561.705 630.053 559.174 627.96 557.517 627.287C555.111 626.309 551.455 624.81 548.567 623.565C543.843 621.529 540.08 619.63 538.653 616.447C537.227 613.264 532.51 598.522 532.51 598.522L521.321 604.636C521.321 604.636 525.33 613.213 526.34 617.046C527.349 620.879 526.34 628.16 526.34 628.16C526.34 628.16 526.079 630.972 529.417 631.754Z" fill="#FFC4A7"/>
<path fill-rule="evenodd" clip-rule="evenodd" d="M525.061 618.677C524.678 619.544 523.108 625.283 523.108 625.283L523.01 628.077C523.01 628.077 541.083 632.903 547.192 633.117C553.3 633.33 564.344 630.35 564.344 630.35C564.344 630.35 563.984 627.529 563.099 627.094C562.214 626.659 554.135 625.316 552.946 624.738C551.757 624.16 542.169 618.745 540.255 618.678C538.341 618.611 537.86 618.888 536.294 619.887C534.728 620.886 531.991 621.891 529.06 621.338C526.129 620.785 527.529 618.009 526.85 617.669C526.171 617.329 525.443 617.81 525.061 618.677Z" fill="#E3E9FF"/>
<path fill-rule="evenodd" clip-rule="evenodd" d="M522.295 625.285C521.665 625.662 520.926 632.247 521.291 632.545C521.656 632.842 523.832 634.995 531.168 635.251C538.505 635.508 551.175 636.199 555.767 635.308C560.36 634.417 564.905 631.358 564.929 630.664C564.954 629.97 564.945 629.679 564.737 629.672C564.529 629.665 554.504 632.442 551.476 631.886C549.922 631.601 531.654 630.443 531.654 630.443C531.654 630.443 522.601 625.102 522.295 625.285Z" fill="#93B2CC"/>
<path fill-rule="evenodd" clip-rule="evenodd" d="M413.858 515.523C413.858 515.523 411.089 548.985 436.877 548.593C457.339 548.282 501.271 543.33 501.271 543.33C501.271 543.33 501.988 560.533 506.019 570.686C510.05 580.84 521.976 607.234 521.976 607.234H535.866L522.612 538.404C520.918 529.605 513.771 522.886 504.885 521.737L456.822 515.523V510.482L413.525 510.482L413.858 515.523Z" fill="#113B7B"/>
<path fill-rule="evenodd" clip-rule="evenodd" d="M433.971 515.894L425.522 530.988L423.652 515.575L433.971 515.894Z" fill="#0A2650"/>
<path d="M423.876 510.482L424.784 524.912C425.371 534.251 433.301 541.416 442.651 541.056L502.132 538.767C504.365 538.681 506.362 540.145 506.951 542.3L524.732 607.287" stroke="#0A2650" stroke-width="0.587664"/>
<path fill-rule="evenodd" clip-rule="evenodd" d="M468.661 438.577L481.661 464.086L511.012 435.875C511.13 435.762 511.205 435.61 511.224 435.447L512.436 424.861C512.436 424.861 519.415 413.639 520.557 417.724C520.983 419.251 517.371 421.043 518.063 426.03C518.192 426.955 525.66 421.908 528.865 419.695C529.388 419.334 530.089 419.792 529.968 420.416L527.708 432.074C527.677 432.233 527.592 432.376 527.468 432.48L516.789 441.404L489.661 478.438C485.405 484.25 476.559 483.693 473.064 477.394L455.109 445.035L468.661 438.577Z" fill="#FFC4A7"/>
<path d="M519.67 414.156C519.913 412.777 521.255 411.878 522.623 412.177L537.015 415.323C538.307 415.605 539.145 416.856 538.916 418.158L534.615 442.546C534.372 443.925 533.03 444.824 531.662 444.525L517.27 441.379C515.979 441.096 515.14 439.845 515.37 438.544L519.67 414.156Z" fill="#F5AC00"/>
<path d="M521.363 413.773C521.614 412.347 523.035 411.444 524.432 411.822L539.106 415.789L551.848 416.732C553.303 416.84 554.346 418.181 554.093 419.617L549.796 443.984C549.576 445.23 548.449 446.107 547.188 446.014L533.949 445.034L518.849 440.951C517.617 440.619 516.844 439.401 517.065 438.145L521.363 413.773Z" fill="#FFBF29"/>
<path d="M550.49 420.762L539.293 420.155" stroke="#EAEFFF" stroke-width="0.8" stroke-linecap="round"/>
<path d="M549.795 424.701L538.599 424.095" stroke="#EAEFFF" stroke-width="0.8" stroke-linecap="round"/>
<path d="M549.101 428.64L537.904 428.034" stroke="#EAEFFF" stroke-width="0.8" stroke-linecap="round"/>
<path d="M523.821 415.776L534.55 419.036" stroke="#EAEFFF" stroke-width="0.8" stroke-linecap="round"/>
<path d="M523.058 419.703L533.787 422.962" stroke="#EAEFFF" stroke-width="0.8" stroke-linecap="round"/>
<path d="M522.295 423.629L533.024 426.889" stroke="#EAEFFF" stroke-width="0.8" stroke-linecap="round"/>
<path d="M521.6 427.568L532.329 430.828" stroke="#EAEFFF" stroke-width="0.8" stroke-linecap="round"/>
<path d="M520.768 431.482L531.497 434.741" stroke="#EAEFFF" stroke-width="0.8" stroke-linecap="round"/>
<path d="M520.143 435.433L530.871 438.692" stroke="#EAEFFF" stroke-width="0.8" stroke-linecap="round"/>
<path d="M537.245 415.839C537.282 415.627 537.481 415.483 537.695 415.513C537.919 415.544 538.072 415.755 538.033 415.978L533.032 444.34C532.995 444.552 532.796 444.697 532.582 444.667C532.358 444.635 532.205 444.424 532.244 444.201L537.245 415.839Z" fill="#EAEFFF"/>
<path fill-rule="evenodd" clip-rule="evenodd" d="M466.693 429.24C464.55 424.94 459.341 423.172 455.023 425.279C450.571 427.451 448.808 432.882 451.135 437.255L460.561 454.966L475.451 446.812L466.693 429.24Z" fill="#FFE3F4"/>
<path fill-rule="evenodd" clip-rule="evenodd" d="M475.662 444.985C475.564 444.798 475.328 444.731 475.146 444.839L458.73 454.534C458.558 454.635 458.498 454.854 458.593 455.029L460.739 458.972C460.84 459.157 461.075 459.221 461.255 459.112L477.512 449.264C477.679 449.163 477.739 448.95 477.648 448.777L475.662 444.985Z" fill="#FF4F4F"/>
<path fill-rule="evenodd" clip-rule="evenodd" d="M410.98 435.792C409.696 430.757 413.125 425.74 418.282 425.107L440.489 422.382L458.542 424.405C459.747 424.54 460.793 425.274 461.305 426.373C463.816 431.76 471.211 448.15 471.636 455.237C472.027 461.777 466.058 469.073 466.058 475.778C466.058 482.484 470.46 514.058 470.46 514.058L409.656 517.136C409.119 517.164 408.715 516.654 408.864 516.137L420.858 474.521L410.98 435.792Z" fill="#FFC4A7"/>
<path fill-rule="evenodd" clip-rule="evenodd" d="M410.98 435.792C409.696 430.757 413.125 425.74 418.282 425.107L431.478 423.488C431.478 423.488 438.549 435.083 447.118 434.364C455.687 433.644 450.786 423.536 450.786 423.536L458.542 424.405C459.747 424.54 460.793 425.274 461.305 426.373C463.816 431.76 471.211 448.151 471.636 455.237C472.027 461.777 466.058 469.073 466.058 475.778C466.058 482.484 470.46 514.058 470.46 514.058L409.656 517.136C409.119 517.164 408.715 516.654 408.864 516.137L420.858 474.521L410.98 435.792Z" fill="#FFE3F4"/>
<path fill-rule="evenodd" clip-rule="evenodd" d="M425.407 439.036L419.434 468.369L415.189 452.751L425.407 439.036Z" fill="#080708" fill-opacity="0.16144"/>
<path fill-rule="evenodd" clip-rule="evenodd" d="M432.92 423.261C437.847 430.793 442.59 433.339 447.241 432.633L447.492 432.592C451.482 431.898 452.622 428.892 450.556 423.651L450.491 423.488L454.08 423.876C456.998 431.01 454.357 434.918 447.74 435.922C441.592 436.855 433.546 432.592 429.893 423.905L429.726 423.651L432.92 423.261Z" fill="#FF4F4F"/>
<path fill-rule="evenodd" clip-rule="evenodd" d="M419.587 447.144L403.784 476.695C403.784 476.695 464.652 454.827 465.219 455.77C466.157 457.327 460.369 460.156 458.863 462.024C457.356 463.891 458.863 469.167 457.22 471.139C456.504 472 449.007 472.01 446.512 472.01C445.46 472.01 433.587 477.126 415.4 486.46C414.133 487.11 410.442 488.709 405.767 490.682C394.977 495.235 384.45 483.874 389.693 473.402L406.656 439.52L419.587 447.144Z" fill="#FFC4A7"/>
<path fill-rule="evenodd" clip-rule="evenodd" d="M408.944 430.913C411.234 426.004 417.259 424.142 421.92 426.901L423.002 427.541C427.268 430.066 428.754 435.524 426.357 439.863L415.405 459.69L399.24 451.704L408.944 430.913Z" fill="#FFE3F4"/>
<path fill-rule="evenodd" clip-rule="evenodd" d="M417.298 457.813C417.387 457.636 417.321 457.422 417.149 457.325L400.543 447.955C400.358 447.85 400.123 447.923 400.03 448.114L397.996 452.28C397.91 452.457 397.977 452.671 398.15 452.766L414.806 461.921C414.989 462.022 415.22 461.95 415.314 461.763L417.298 457.813Z" fill="#FF4F4F"/>
<path fill-rule="evenodd" clip-rule="evenodd" d="M445.128 462.924C445.128 462.924 449.921 453.246 451.623 453.361C453.325 453.476 450.173 462.665 450.173 462.665L445.128 462.924Z" fill="#FFC4A7"/>
<path fill-rule="evenodd" clip-rule="evenodd" d="M426.253 396.626C431.305 396.626 435.401 392.53 435.401 387.478C435.401 382.426 431.305 378.331 426.253 378.331C421.201 378.331 417.105 382.426 417.105 387.478C417.105 392.53 421.201 396.626 426.253 396.626Z" fill="#5B1E09"/>
<path fill-rule="evenodd" clip-rule="evenodd" d="M428.088 398.29C432.589 400.583 438.098 398.794 440.391 394.292C442.685 389.791 440.895 384.282 436.393 381.989C431.892 379.695 427.085 381.762 424.791 386.263C422.498 390.765 423.586 395.996 428.088 398.29Z" fill="#FF4F4F"/>
<path fill-rule="evenodd" clip-rule="evenodd" d="M445.047 413.59C455.702 413.59 464.34 404.952 464.34 394.297C464.34 383.642 454.143 374.031 446.927 378.621C437.842 373.57 425.754 382.805 425.754 394.297C425.754 405.79 434.392 413.59 445.047 413.59Z" fill="#5B1E09"/>
<path fill-rule="evenodd" clip-rule="evenodd" d="M436.239 424.755C436.239 428.212 439.042 431.01 442.499 431.01C446.175 431.01 449.06 427.857 448.734 424.195L448.011 416.075C448.011 416.075 455.803 416.692 458.442 412.924C461.082 409.156 460.717 389.53 460.717 389.53L436.239 389.53C436.239 389.53 436.239 394.395 436.239 396.083C428.765 396.083 428.765 405.107 436.239 405.107C436.239 410.899 436.239 419.135 436.239 424.755Z" fill="#FFC4A7"/>
<path fill-rule="evenodd" clip-rule="evenodd" d="M453.931 390.288C453.931 390.288 456.011 395.324 457.867 396.838C459.724 398.353 462.959 398.158 462.959 398.158L460.762 385.267H435.401V395.669C435.401 395.669 443.139 400.248 447.488 397.728C451.836 395.207 453.931 390.288 453.931 390.288Z" fill="#5B1E09"/>
<path fill-rule="evenodd" clip-rule="evenodd" d="M448.026 416.055C448.026 416.055 445.713 415.743 443.932 415.181C442.152 414.62 439.899 413.486 439.899 413.486C439.899 413.486 442.956 416.456 444.563 417.732C446.17 419.009 448.411 420.248 448.411 420.248L448.026 416.055Z" fill="#F19B93"/>
<path fill-rule="evenodd" clip-rule="evenodd" d="M455.692 400.617L455.692 407.086C455.692 407.086 458.388 405.686 458.388 405.14C458.388 404.593 455.692 400.617 455.692 400.617Z" fill="#F19B93"/>
<path fill-rule="evenodd" clip-rule="evenodd" d="M499.16 501.2H486.04V636.44H499.16V501.2Z" fill="#A7C3FF"/>
<path fill-rule="evenodd" clip-rule="evenodd" d="M500.68 501.2H493.6V636.44H500.68L500.68 501.2Z" fill="#C8DAFF"/>
<path fill-rule="evenodd" clip-rule="evenodd" d="M734.16 501.2H721.04V636.44H734.16V501.2Z" fill="#A7C3FF"/>
<path fill-rule="evenodd" clip-rule="evenodd" d="M735.64 501.2H728.56V636.44H735.64L735.64 501.2Z" fill="#C8DAFF"/>
<path fill-rule="evenodd" clip-rule="evenodd" d="M566.36 501.2H553.24V636.44H566.36V501.2Z" fill="#A7C3FF"/>
<path fill-rule="evenodd" clip-rule="evenodd" d="M567.88 501.2H560.8V636.44H567.88V501.2Z" fill="#C8DAFF"/>
<path fill-rule="evenodd" clip-rule="evenodd" d="M801.36 501.2H788.24V636.44H801.36V501.2Z" fill="#A7C3FF"/>
<path fill-rule="evenodd" clip-rule="evenodd" d="M802.84 501.2H795.76V636.44H802.84V501.2Z" fill="#C8DAFF"/>
<path fill-rule="evenodd" clip-rule="evenodd" d="M652 498.68C652 497.752 651.248 497 650.32 497H472.6C471.672 497 470.92 497.752 470.92 498.68V507.92C470.92 508.848 471.672 509.6 472.6 509.6H650.32C651.248 509.6 652 508.848 652 507.92V498.68Z" fill="#A7C3FF"/>
<path fill-rule="evenodd" clip-rule="evenodd" d="M813 498.68C813 497.752 812.248 497 811.32 497H556.6C555.672 497 554.92 497.752 554.92 498.68V507.92C554.92 508.848 555.672 509.6 556.6 509.6H811.32C812.248 509.6 813 508.848 813 507.92V498.68Z" fill="#C8DAFF"/>
<path d="M593 489C593 487.895 593.895 487 595 487H649C650.105 487 651 487.895 651 489V495C651 496.105 650.105 497 649 497H595C593.895 497 593 496.105 593 495V489Z" fill="#F5AC00"/>
<path d="M593 489C593 487.895 593.895 487 595 487L624 487C625.105 487 626 487.895 626 489V495C626 496.105 625.105 497 624 497H595C593.895 497 593 496.105 593 495V489Z" fill="#FFBF29"/>
<path d="M595 489.8C595 488.806 595.806 488 596.8 488L650 488C650.552 488 651 488.448 651 489V495C651 495.552 650.552 496 650 496H596.8C595.806 496 595 495.194 595 494.2V489.8Z" fill="#EAEFFF"/>
<path fill-rule="evenodd" clip-rule="evenodd" d="M626 489.8C626 488.806 626.806 488 627.8 488H650C650.552 488 651 488.448 651 489V495C651 495.552 650.552 496 650 496H627.8C626.806 496 626 495.194 626 494.2V489.8Z" fill="#C1D7FF"/>
<path fill-rule="evenodd" clip-rule="evenodd" d="M558 489C558 487.895 558.895 487 560 487H614C615.105 487 616 487.895 616 489V495C616 496.105 615.105 497 614 497H560C558.895 497 558 496.105 558 495V489Z" fill="#FF326F"/>
<path fill-rule="evenodd" clip-rule="evenodd" d="M558 489C558 487.895 558.895 487 560 487L589 487C590.105 487 591 487.895 591 489V495C591 496.105 590.105 497 589 497H560C558.895 497 558 496.105 558 495V489Z" fill="#FF5D8E"/>
<path d="M560 489.8C560 488.806 560.806 488 561.8 488L615 488C615.552 488 616 488.448 616 489V495C616 495.552 615.552 496 615 496H561.8C560.806 496 560 495.194 560 494.2V489.8Z" fill="#EAEFFF"/>
<path fill-rule="evenodd" clip-rule="evenodd" d="M591 489.8C591 488.806 591.806 488 592.8 488H615C615.552 488 616 488.448 616 489V495C616 495.552 615.552 496 615 496H592.8C591.806 496 591 495.194 591 494.2V489.8Z" fill="#C1D7FF"/>
<path d="M488 489C488 487.895 488.895 487 490 487H544C545.105 487 546 487.895 546 489V495C546 496.105 545.105 497 544 497H490C488.895 497 488 496.105 488 495V489Z" fill="#B34EE6"/>
<path d="M488 489C488 487.895 488.895 487 490 487L519 487C520.105 487 521 487.895 521 489V495C521 496.105 520.105 497 519 497H490C488.895 497 488 496.105 488 495V489Z" fill="#CF6FFF"/>
<path d="M488 489.8C488 488.806 488.806 488 489.8 488L518 488C519.105 488 520 488.895 520 490V494C520 495.105 519.105 496 518 496H489.8C488.806 496 488 495.194 488 494.2V489.8Z" fill="#EAEFFF"/>
<path fill-rule="evenodd" clip-rule="evenodd" d="M701.438 634.166C698.101 634.954 688.205 634.067 680.787 634.586C677.448 634.82 670.811 634.069 669.672 633.554C668.029 632.812 670.579 630.703 672.251 630.028C674.971 628.932 679.269 627.181 682.28 625.87C687.003 623.814 691.284 622.542 691.809 619.326C692.334 616.111 686.172 600.545 686.172 600.545L699.514 606.04C699.514 606.04 702.369 617.262 703.787 622.914C705.205 628.565 704.513 630.535 704.513 630.535C704.513 630.535 704.776 633.378 701.438 634.166Z" fill="#FFC4A7"/>
<path fill-rule="evenodd" clip-rule="evenodd" d="M689.883 619.385C689.883 619.385 691.245 620.891 691.274 622.522C691.302 624.152 692.208 625.18 692.713 625.171C693.217 625.162 693.166 624.2 694.878 624.833C696.591 625.466 696.623 626.411 700.295 626.347C703.967 626.283 704.762 623.04 704.762 623.04C704.762 623.04 705.655 625.34 705.692 627.47C705.729 629.6 705.018 633.138 705.018 633.138L686.675 634.01L667.45 633.793C667.45 633.793 667.144 632.004 667.798 631.343C668.451 630.682 678.348 626.73 682.381 624.919C686.414 623.107 689.883 619.385 689.883 619.385Z" fill="#94A4B1"/>
<path fill-rule="evenodd" clip-rule="evenodd" d="M705.26 632.444C705.26 632.444 705.93 633.926 705.681 635.238C705.431 636.55 704.801 636.94 703.509 636.962C703.127 636.969 701.433 636.948 697.235 636.979C694.275 637.002 690.244 636.263 689.022 636.285C687.801 636.306 682.918 637.148 680.131 637.154C674.504 637.166 668.462 637.12 668.123 636.995C667.103 636.618 666.94 633.365 667.82 633.35C667.982 633.347 672.285 633.244 680.956 633.037C682.922 632.99 687.756 632.109 690.052 632.053C692.347 631.997 695.627 632.709 697.513 632.663C702.356 632.543 705.26 632.444 705.26 632.444Z" fill="#737F88"/>
<path fill-rule="evenodd" clip-rule="evenodd" d="M724.265 550.993C703.8 550.993 685.337 547.688 685.337 547.688C685.337 547.688 688.615 561.121 691.558 572.438C694.502 583.755 704.445 620.633 704.445 620.633H691.338L658.091 548.489C652.629 536.636 660.606 522.959 673.612 521.878L716.465 518.314V513.274H744.113C744.113 513.274 748.361 550.993 724.265 550.993Z" fill="#930244"/>
<path fill-rule="evenodd" clip-rule="evenodd" d="M616.885 635.341C613.547 636.123 603.652 635.253 596.235 635.772C592.896 636.005 586.26 634.877 585.121 634.369C583.496 633.644 586.044 631.59 587.72 630.991C590.442 630.019 594.729 628.448 597.735 627.152C602.459 625.116 607.121 623.214 607.649 620.034C608.177 616.854 613.792 602.109 613.792 602.109L624.981 608.224C624.981 608.224 620.972 616.8 619.963 620.633C618.953 624.466 619.963 631.748 619.963 631.748C619.963 631.748 620.223 634.559 616.885 635.341Z" fill="#FFC4A7"/>
<path fill-rule="evenodd" clip-rule="evenodd" d="M604.965 620.948C604.965 620.948 606.327 622.454 606.356 624.085C606.384 625.716 607.29 626.744 607.795 626.735C608.299 626.726 608.248 625.764 609.961 626.397C611.673 627.03 611.705 627.975 615.377 627.91C619.049 627.846 619.844 624.603 619.844 624.603C619.844 624.603 620.737 626.903 620.774 629.034C620.812 631.164 620.1 634.701 620.1 634.701L601.757 635.573L582.532 635.357C582.532 635.357 582.226 633.567 582.88 632.907C583.533 632.246 593.43 628.294 597.463 626.482C601.496 624.671 604.965 620.948 604.965 620.948Z" fill="#ACBDCB"/>
<path fill-rule="evenodd" clip-rule="evenodd" d="M620.341 634.007C620.341 634.007 621.012 635.49 620.763 636.802C620.513 638.114 619.883 638.503 618.591 638.526C617.299 638.549 584.225 638.936 583.205 638.559C582.185 638.182 582.021 634.929 582.902 634.914C583.326 634.906 590.08 635.268 603.708 634.942C608.964 634.817 620.341 634.007 620.341 634.007Z" fill="#84919A"/>
<path fill-rule="evenodd" clip-rule="evenodd" d="M709.426 551.441C688.964 551.13 645.032 546.178 645.032 546.178C645.032 546.178 644.314 563.381 640.283 573.535C636.252 583.689 620.261 622.649 620.261 622.649H606.371L623.502 540.95C625.315 532.304 632.4 525.751 641.161 524.619L689.481 518.371V513.331L730.807 513.331C730.807 513.331 735.213 551.833 709.426 551.441Z" fill="#BE065A"/>
<path fill-rule="evenodd" clip-rule="evenodd" d="M693.482 518.003L700.87 528.463L703.801 517.685L693.482 518.003Z" fill="#930244"/>
<path d="M703.946 513.331L703.261 521.644C702.536 530.457 695.26 537.291 686.419 537.464L637.956 538.414C634.998 538.472 632.434 540.474 631.659 543.328L610.113 622.701" stroke="#FFCBE3" stroke-width="0.587664"/>
<path fill-rule="evenodd" clip-rule="evenodd" d="M701.575 402.055V408.912C701.575 408.912 698.455 408.259 698.455 407.24C698.455 406.222 701.575 402.055 701.575 402.055Z" fill="#F19B93"/>
<path fill-rule="evenodd" clip-rule="evenodd" d="M725.512 427.915H710.566L711.976 420.898C711.976 420.898 705.832 421.553 703.034 417.559C700.237 413.564 700.623 392.76 700.623 392.76H725.512V427.915Z" fill="#FFC4A7"/>
<path fill-rule="evenodd" clip-rule="evenodd" d="M711.976 420.898L715.092 420.446L710.566 427.915L711.976 420.898Z" fill="#F19B93"/>
<path fill-rule="evenodd" clip-rule="evenodd" d="M698.205 391.193C699.283 397.127 707.925 395.695 706.714 401.702C706.104 404.729 704.709 408.77 704.709 413.073C704.709 415.781 706.678 422.613 706.678 422.613C706.678 422.613 718.666 421.438 724.474 421.438C730.282 421.438 737.402 422.613 737.402 422.613C737.402 422.613 741.17 414.254 740.408 410.722C739.233 405.274 734.825 403.088 736.619 396.722C740.912 381.484 717.051 372.538 708.676 381.806C704.155 379.579 697.128 385.259 698.205 391.193Z" fill="#842404"/>
<path fill-rule="evenodd" clip-rule="evenodd" d="M779.097 412.358C779.097 412.358 775.152 408.433 774.234 407.142C772.659 404.93 773.162 404.033 774.234 404.558C776.778 405.805 780.112 408.729 780.112 408.729L779.097 412.358Z" fill="#FFC4A7"/>
<path fill-rule="evenodd" clip-rule="evenodd" d="M746.927 438.132L768.693 454.078C768.693 454.078 778.882 427.866 780.297 417.583C780.496 416.135 778.444 414.107 778.351 412.467C778.182 409.497 780.842 393.562 781.674 393.562C783.31 393.562 782.529 403.776 782.529 403.776C782.529 403.776 791.431 404.626 791.431 405.868C791.431 415.105 789.312 417.575 789.353 418.183C789.513 420.605 785.201 446.309 782.214 463.716C780.962 471.008 772.424 474.351 766.54 469.865L738.954 448.835L746.927 438.132Z" fill="#FFC4A7"/>
<path fill-rule="evenodd" clip-rule="evenodd" d="M742.911 430.566C738.714 427.735 733.016 428.842 730.185 433.04L728.804 435.086C725.973 439.283 727.081 444.981 731.278 447.813L744.243 456.558L755.556 439.095L742.911 430.566Z" fill="#FF7E74"/>
<path fill-rule="evenodd" clip-rule="evenodd" d="M743.434 443.145V455.876L741.079 454.505L743.434 443.145Z" fill="#CC635C"/>
<path fill-rule="evenodd" clip-rule="evenodd" d="M746.051 439.077C747.296 434.198 744.113 429.304 739.13 428.581C732.941 427.685 724.966 426.669 719.566 426.494C711.82 426.244 702.186 427.493 698.247 428.067C697.112 428.232 696.15 428.948 695.665 429.988C693.203 435.263 685.713 451.824 685.285 458.957C684.894 465.497 690.862 472.793 690.862 479.499C690.862 486.204 686.461 517.778 686.461 517.778L747.265 520.857C747.802 520.884 748.206 520.374 748.057 519.857L736.063 478.242L746.051 439.077Z" fill="#FF7E74"/>
<path fill-rule="evenodd" clip-rule="evenodd" d="M705.539 444.286C703.798 453.284 690.788 476.854 690.788 476.854L688.196 469.413L701.912 441.34C701.912 441.34 707.279 435.287 705.539 444.286Z" fill="#CC635C"/>
<path fill-rule="evenodd" clip-rule="evenodd" d="M690.226 437.121L674.779 468.421L655.917 440.177C655.855 440.083 655.816 439.977 655.803 439.865L654.581 429.196C654.581 429.196 650.229 418.718 648.954 421.944C648.401 423.345 649.647 425.378 648.954 430.366C648.826 431.29 641.357 426.243 638.152 424.03C637.629 423.669 636.929 424.127 637.049 424.751L639.309 436.409C639.34 436.568 639.425 436.712 639.549 436.816L650.229 445.74L664.679 480.73C667.829 488.359 678.394 488.984 682.421 481.78L703.779 443.578L690.226 437.121Z" fill="#FFC4A7"/>
<path fill-rule="evenodd" clip-rule="evenodd" d="M689.174 433.294C691.406 428.717 696.942 426.836 701.501 429.107L702.611 429.66C707.116 431.904 708.97 437.361 706.763 441.885L701.601 452.468L684.236 443.417L689.174 433.294Z" fill="#FF7E74"/>
<path fill-rule="evenodd" clip-rule="evenodd" d="M707.924 557.16L695.8 642.84L702.156 642.756L714.28 558.056L707.924 557.16Z" fill="#A7C3FF"/>
<path fill-rule="evenodd" clip-rule="evenodd" d="M713.077 557.16L725.2 642.84L718.844 642.756L706.72 558.056L713.077 557.16Z" fill="#C8DAFF"/>
<path fill-rule="evenodd" clip-rule="evenodd" d="M672.644 557.16L660.52 642.84L666.876 642.756L679 558.056L672.644 557.16Z" fill="#A7C3FF"/>
<path fill-rule="evenodd" clip-rule="evenodd" d="M750.036 557.16L762.16 642.84L755.804 642.756L743.68 558.056L750.036 557.16Z" fill="#C8DAFF"/>
<path fill-rule="evenodd" clip-rule="evenodd" d="M667.996 562.2C662.475 562.2 658 557.725 658 552.204C658 546.683 662.475 542.208 667.996 542.208H708.617C714.339 542.208 719.12 537.855 719.657 532.159L726.164 463.049C726.701 457.353 731.482 453 737.203 453H763.626C770.085 453 775.177 458.499 774.682 464.938L767.988 551.962C767.543 557.739 762.726 562.2 756.932 562.2H667.996Z" fill="#A7C3FF"/>
<path fill-rule="evenodd" clip-rule="evenodd" d="M731.657 454.4L724.91 541.885C724.464 547.661 719.647 552.12 713.854 552.12H658.156L658.002 552.118L658 551.925C658 546.418 662.464 541.955 667.97 541.955H708.472C714.192 541.955 718.973 537.604 719.511 531.909L726.014 463.046C726.368 459.294 728.564 456.126 731.657 454.4Z" fill="#C8DAFF"/>
<path fill-rule="evenodd" clip-rule="evenodd" d="M560.28 329.8C562.445 329.8 564.2 331.555 564.2 333.72V370.57C564.2 372.735 562.445 374.49 560.28 374.49L483.817 374.49L468.194 386.6L468.193 374.49L464.12 374.49C461.955 374.49 460.2 372.735 460.2 370.57V333.72C460.2 331.555 461.955 329.8 464.12 329.8H560.28Z" fill="#DEE9FF"/>
<path d="M474.01 347.657H550.705C551.699 347.657 552.505 346.851 552.505 345.857C552.505 344.863 551.699 344.057 550.705 344.057H474.01C473.016 344.057 472.21 344.863 472.21 345.857C472.21 346.851 473.016 347.657 474.01 347.657Z" fill="white"/>
<path d="M474.01 359.657H538.705C539.699 359.657 540.505 358.851 540.505 357.857C540.505 356.863 539.699 356.057 538.705 356.057H474.01C473.016 356.057 472.21 356.863 472.21 357.857C472.21 358.851 473.016 359.657 474.01 359.657Z" fill="white"/>
<path fill-rule="evenodd" clip-rule="evenodd" d="M840.28 331.8C842.445 331.8 844.2 333.555 844.2 335.72V372.57C844.2 374.735 842.445 376.49 840.28 376.49L763.817 376.49L748.194 388.6L748.193 376.49L744.12 376.49C741.955 376.49 740.2 374.735 740.2 372.57V335.72C740.2 333.555 741.955 331.8 744.12 331.8H840.28Z" fill="#DEE9FF"/>
<path d="M754.01 349.657H830.705C831.699 349.657 832.505 348.851 832.505 347.857C832.505 346.863 831.699 346.057 830.705 346.057H754.01C753.016 346.057 752.21 346.863 752.21 347.857C752.21 348.851 753.016 349.657 754.01 349.657Z" fill="white"/>
<path d="M754.01 361.657H818.705C819.699 361.657 820.505 360.851 820.505 359.857C820.505 358.863 819.699 358.057 818.705 358.057H754.01C753.016 358.057 752.21 358.863 752.21 359.857C752.21 360.851 753.016 361.657 754.01 361.657Z" fill="white"/>
<path fill-rule="evenodd" clip-rule="evenodd" d="M595.455 43L595.455 144H600.455V156H598.479L621.057 183.217C621.762 184.067 621.645 185.328 620.794 186.033C620.678 186.13 620.55 186.213 620.415 186.281C615.857 188.569 606.628 189.713 592.728 189.713L591.354 189.709C578.226 189.636 569.458 188.494 565.049 186.285C564.061 185.79 563.662 184.589 564.157 183.601C564.226 183.463 564.311 183.334 564.41 183.215L587.138 156H585.455V144H590.455L590.455 43H595.455Z" fill="#C8DAFF"/>
<path fill-rule="evenodd" clip-rule="evenodd" d="M645.455 44L645.455 174H650.455V186H648.479L671.057 213.217C671.762 214.067 671.645 215.328 670.794 216.033C670.678 216.13 670.55 216.213 670.415 216.281C665.857 218.569 656.628 219.713 642.728 219.713L641.354 219.709C628.226 219.636 619.458 218.494 615.049 216.285C614.061 215.79 613.662 214.589 614.157 213.601C614.226 213.463 614.311 213.334 614.41 213.215L637.138 186H635.455V174H640.455L640.455 44H645.455Z" fill="#C8DAFF"/>
<path fill-rule="evenodd" clip-rule="evenodd" d="M403.905 57.577L403.904 56.5577C416.106 53.2171 425.073 42.05 425.073 28.7885C425.073 15.527 416.106 4.35985 403.904 1.0193L403.905 0H396.284C380.385 0 367.496 12.889 367.496 28.7885C367.496 44.5289 380.128 57.3189 395.808 57.5731L396.284 57.577H403.905Z" fill="#A7C3FF"/>
<path fill-rule="evenodd" clip-rule="evenodd" d="M402.212 57.577C386.312 57.577 373.423 44.6879 373.423 28.7885C373.423 12.889 386.312 0 402.212 0C418.111 0 431 12.889 431 28.7885C431 44.6879 418.111 57.577 402.212 57.577Z" fill="#C8DAFF"/>
<path fill-rule="evenodd" clip-rule="evenodd" d="M402.432 54.6135C388.169 54.6135 376.607 43.0513 376.607 28.7886C376.607 14.5259 388.169 2.96362 402.432 2.96362C416.695 2.96362 428.257 14.5259 428.257 28.7886C428.257 43.0513 416.695 54.6135 402.432 54.6135Z" fill="#A7C3FF"/>
<path d="M400.304 3.13047L399.891 3.08691C386.821 4.36312 376.607 15.383 376.607 28.7885C376.607 42.194 386.821 53.2139 399.891 54.4901C412.962 53.2144 423.176 42.1943 423.176 28.7885C423.176 15.5242 413.176 4.59549 400.304 3.13047L399.891 3.08691L400.304 3.13047Z" fill="#EAEFFF"/>
<path fill-rule="evenodd" clip-rule="evenodd" d="M400.73 7.48709V30.4837C400.73 30.8344 400.446 31.1187 400.095 31.1187C399.744 31.1187 399.46 30.8344 399.46 30.4837V7.48709C399.46 7.13637 399.744 6.85205 400.095 6.85205C400.446 6.85205 400.73 7.13637 400.73 7.48709Z" fill="#A7C3FF"/>
<path fill-rule="evenodd" clip-rule="evenodd" d="M399.456 29.6395L412.652 19.6565C413.118 19.3039 413.782 19.3959 414.135 19.862C414.487 20.3282 414.395 20.992 413.929 21.3447L400.733 31.3276C400.267 31.6803 399.604 31.5883 399.251 31.1221C398.898 30.656 398.99 29.9922 399.456 29.6395Z" fill="#A7C3FF"/>
</svg>
