<svg id="图层_1" data-name="图层 1" xmlns="http://www.w3.org/2000/svg" viewBox="0 0 300 300"><defs><style>.cls-1,.cls-2,.cls-3,.cls-4,.cls-5,.cls-6,.cls-8{fill:none;}.cls-1,.cls-2,.cls-3,.cls-4,.cls-5,.cls-6,.cls-7,.cls-8{stroke:#34495e;}.cls-1,.cls-6{stroke-linecap:round;}.cls-1{stroke-width:5.33px;}.cls-2,.cls-6{stroke-width:10.67px;}.cls-3{stroke-miterlimit:4.02;stroke-width:10.71px;}.cls-4{stroke-miterlimit:4;stroke-width:10.68px;}.cls-5{stroke-miterlimit:3.99;stroke-width:10.65px;}.cls-8{stroke-width:8px;}.cls-7{fill:#34495e}</style></defs><path id="shape3" class="cls-1" d="M244,150.77l-.55,31.74a6.45,6.45,0,0,1-6.43,6.18l-21-.36a6.35,6.35,0,0,1-6.35-6.36v-2.33a6.27,6.27,0,0,1,6.35-6.28h14.59a6.39,6.39,0,0,0,6.34-6.27L236.82,145a6.27,6.27,0,0,0-6.34-6.27H216a6.27,6.27,0,0,0-6.35,6.27V182a6.27,6.27,0,0,0,6.35,6.27h16.4M218,181h18.67"/><path id="shape4" class="cls-2" d="M52.34,133.31a10.88,10.88,0,1,1,10.88,10.75A10.85,10.85,0,0,1,52.34,133.31Z"/><path id="shape5" class="cls-3" d="M55.06,127,28.65,109.92"/><path id="shape6" class="cls-4" d="M32.41,113.58,59.3,74.15"/><path id="shape7" class="cls-3" d="M75.45,127l26.41-17.11"/><path id="shape8" class="cls-5" d="M98.1,113.58,72.56,74.28"/><path id="shape9" class="cls-6" d="M6,107.31c42.59-135.37,252.82-135.37,288.71,0"/><path id="shape10" class="cls-7" d="M86.85,188.26V136.89h6.89v51.37Zm18.67,0V136.89H125a25.73,25.73,0,0,1,9.6,1.53,12.74,12.74,0,0,1,5.62,4.84,12.42,12.42,0,0,1,2,6.81,12,12,0,0,1-1.82,6.19,12.78,12.78,0,0,1-5.43,4.66,13.78,13.78,0,0,1,7.25,4.66,12.23,12.23,0,0,1,2.53,7.8,15.21,15.21,0,0,1-1.54,6.72,12.6,12.6,0,0,1-3.8,4.75,16.45,16.45,0,0,1-5.71,2.51,31.94,31.94,0,0,1-8.34.9Zm6.88-29.76h11.24a25.87,25.87,0,0,0,6.52-.63,7.43,7.43,0,0,0,4-2.51,7.27,7.27,0,0,0,1.27-4.48,8.54,8.54,0,0,0-1.18-4.57,6.06,6.06,0,0,0-3.53-2.6c-1.54-.54-4.17-.72-7.89-.72H112.4Zm0,23.66h13c2.18,0,3.72-.09,4.62-.17a13.72,13.72,0,0,0,4-1.44,7.43,7.43,0,0,0,2.63-2.87,9.6,9.6,0,0,0-.46-9.32,7.41,7.41,0,0,0-4.16-3,26.25,26.25,0,0,0-7.53-.9h-12Zm41.87,6.1V136.89h23c4.63,0,8.16.45,10.61,1.35a12,12,0,0,1,5.7,4.93,14.38,14.38,0,0,1,2.18,7.71,13,13,0,0,1-3.53,9.23c-2.45,2.42-6.08,4.12-11.06,4.75a16.28,16.28,0,0,1,4.08,2.6,29.25,29.25,0,0,1,5.71,6.82l9.06,14h-8.61l-6.89-10.67a84,84,0,0,0-5-7.08,18.7,18.7,0,0,0-3.44-3.5,12.36,12.36,0,0,0-3.18-1.34,19.26,19.26,0,0,0-3.8-.27h-8v22.86Zm6.88-28.69h14.77a22.74,22.74,0,0,0,7.34-1,7.92,7.92,0,0,0,4.08-3.05,8.48,8.48,0,0,0,1.36-4.66,7.66,7.66,0,0,0-2.72-6c-1.72-1.52-4.53-2.33-8.42-2.33H161.15Z"/><path id="shape11" class="cls-6" d="M6,192.47c42.59,135.37,252.82,135.37,288.7,0"/><polyline class="cls-8" points="252.5 201.5 63.5 201.5 63.5 147"/></svg>
